%TF.GenerationSoftware,KiCad,Pcbnew,9.0.7*%
%TF.CreationDate,2026-04-08T17:22:56+05:30*%
%TF.ProjectId,mobilecharger,6d6f6269-6c65-4636-9861-726765722e6b,rev?*%
%TF.SameCoordinates,Original*%
%TF.FileFunction,Legend,Top*%
%TF.FilePolarity,Positive*%
%FSLAX46Y46*%
G04 Gerber Fmt 4.6, Leading zero omitted, Abs format (unit mm)*
G04 Created by KiCad (PCBNEW 9.0.7) date 2026-04-08 17:22:56*
%MOMM*%
%LPD*%
G01*
G04 APERTURE LIST*
%ADD10C,0.100000*%
%ADD11C,0.343750*%
%ADD12C,0.250000*%
%ADD13C,0.150000*%
%ADD14C,0.120000*%
G04 APERTURE END LIST*
D10*
X76500000Y-39500000D02*
X195500000Y-39500000D01*
X195500000Y-99500000D01*
X76500000Y-99500000D01*
X76500000Y-39500000D01*
D11*
X158452341Y-90883672D02*
X158321389Y-91014625D01*
X158321389Y-91014625D02*
X157928531Y-91145577D01*
X157928531Y-91145577D02*
X157666627Y-91145577D01*
X157666627Y-91145577D02*
X157273770Y-91014625D01*
X157273770Y-91014625D02*
X157011865Y-90752720D01*
X157011865Y-90752720D02*
X156880912Y-90490815D01*
X156880912Y-90490815D02*
X156749960Y-89967005D01*
X156749960Y-89967005D02*
X156749960Y-89574148D01*
X156749960Y-89574148D02*
X156880912Y-89050339D01*
X156880912Y-89050339D02*
X157011865Y-88788434D01*
X157011865Y-88788434D02*
X157273770Y-88526529D01*
X157273770Y-88526529D02*
X157666627Y-88395577D01*
X157666627Y-88395577D02*
X157928531Y-88395577D01*
X157928531Y-88395577D02*
X158321389Y-88526529D01*
X158321389Y-88526529D02*
X158452341Y-88657482D01*
X159630912Y-91145577D02*
X159630912Y-88395577D01*
X159630912Y-89705101D02*
X161202341Y-89705101D01*
X161202341Y-91145577D02*
X161202341Y-88395577D01*
X162380912Y-90359863D02*
X163690436Y-90359863D01*
X162119007Y-91145577D02*
X163035674Y-88395577D01*
X163035674Y-88395577D02*
X163952341Y-91145577D01*
X166440436Y-91145577D02*
X165523769Y-89836053D01*
X164869007Y-91145577D02*
X164869007Y-88395577D01*
X164869007Y-88395577D02*
X165916626Y-88395577D01*
X165916626Y-88395577D02*
X166178531Y-88526529D01*
X166178531Y-88526529D02*
X166309484Y-88657482D01*
X166309484Y-88657482D02*
X166440436Y-88919386D01*
X166440436Y-88919386D02*
X166440436Y-89312244D01*
X166440436Y-89312244D02*
X166309484Y-89574148D01*
X166309484Y-89574148D02*
X166178531Y-89705101D01*
X166178531Y-89705101D02*
X165916626Y-89836053D01*
X165916626Y-89836053D02*
X164869007Y-89836053D01*
X169059484Y-88526529D02*
X168797579Y-88395577D01*
X168797579Y-88395577D02*
X168404722Y-88395577D01*
X168404722Y-88395577D02*
X168011865Y-88526529D01*
X168011865Y-88526529D02*
X167749960Y-88788434D01*
X167749960Y-88788434D02*
X167619007Y-89050339D01*
X167619007Y-89050339D02*
X167488055Y-89574148D01*
X167488055Y-89574148D02*
X167488055Y-89967005D01*
X167488055Y-89967005D02*
X167619007Y-90490815D01*
X167619007Y-90490815D02*
X167749960Y-90752720D01*
X167749960Y-90752720D02*
X168011865Y-91014625D01*
X168011865Y-91014625D02*
X168404722Y-91145577D01*
X168404722Y-91145577D02*
X168666626Y-91145577D01*
X168666626Y-91145577D02*
X169059484Y-91014625D01*
X169059484Y-91014625D02*
X169190436Y-90883672D01*
X169190436Y-90883672D02*
X169190436Y-89967005D01*
X169190436Y-89967005D02*
X168666626Y-89967005D01*
X170369007Y-89705101D02*
X171285674Y-89705101D01*
X171678531Y-91145577D02*
X170369007Y-91145577D01*
X170369007Y-91145577D02*
X170369007Y-88395577D01*
X170369007Y-88395577D02*
X171678531Y-88395577D01*
X174428531Y-91145577D02*
X173511864Y-89836053D01*
X172857102Y-91145577D02*
X172857102Y-88395577D01*
X172857102Y-88395577D02*
X173904721Y-88395577D01*
X173904721Y-88395577D02*
X174166626Y-88526529D01*
X174166626Y-88526529D02*
X174297579Y-88657482D01*
X174297579Y-88657482D02*
X174428531Y-88919386D01*
X174428531Y-88919386D02*
X174428531Y-89312244D01*
X174428531Y-89312244D02*
X174297579Y-89574148D01*
X174297579Y-89574148D02*
X174166626Y-89705101D01*
X174166626Y-89705101D02*
X173904721Y-89836053D01*
X173904721Y-89836053D02*
X172857102Y-89836053D01*
X177702340Y-91145577D02*
X177702340Y-88395577D01*
X177702340Y-88395577D02*
X178749959Y-88395577D01*
X178749959Y-88395577D02*
X179011864Y-88526529D01*
X179011864Y-88526529D02*
X179142817Y-88657482D01*
X179142817Y-88657482D02*
X179273769Y-88919386D01*
X179273769Y-88919386D02*
X179273769Y-89312244D01*
X179273769Y-89312244D02*
X179142817Y-89574148D01*
X179142817Y-89574148D02*
X179011864Y-89705101D01*
X179011864Y-89705101D02*
X178749959Y-89836053D01*
X178749959Y-89836053D02*
X177702340Y-89836053D01*
X182023769Y-90883672D02*
X181892817Y-91014625D01*
X181892817Y-91014625D02*
X181499959Y-91145577D01*
X181499959Y-91145577D02*
X181238055Y-91145577D01*
X181238055Y-91145577D02*
X180845198Y-91014625D01*
X180845198Y-91014625D02*
X180583293Y-90752720D01*
X180583293Y-90752720D02*
X180452340Y-90490815D01*
X180452340Y-90490815D02*
X180321388Y-89967005D01*
X180321388Y-89967005D02*
X180321388Y-89574148D01*
X180321388Y-89574148D02*
X180452340Y-89050339D01*
X180452340Y-89050339D02*
X180583293Y-88788434D01*
X180583293Y-88788434D02*
X180845198Y-88526529D01*
X180845198Y-88526529D02*
X181238055Y-88395577D01*
X181238055Y-88395577D02*
X181499959Y-88395577D01*
X181499959Y-88395577D02*
X181892817Y-88526529D01*
X181892817Y-88526529D02*
X182023769Y-88657482D01*
X184119007Y-89705101D02*
X184511864Y-89836053D01*
X184511864Y-89836053D02*
X184642817Y-89967005D01*
X184642817Y-89967005D02*
X184773769Y-90228910D01*
X184773769Y-90228910D02*
X184773769Y-90621767D01*
X184773769Y-90621767D02*
X184642817Y-90883672D01*
X184642817Y-90883672D02*
X184511864Y-91014625D01*
X184511864Y-91014625D02*
X184249959Y-91145577D01*
X184249959Y-91145577D02*
X183202340Y-91145577D01*
X183202340Y-91145577D02*
X183202340Y-88395577D01*
X183202340Y-88395577D02*
X184119007Y-88395577D01*
X184119007Y-88395577D02*
X184380912Y-88526529D01*
X184380912Y-88526529D02*
X184511864Y-88657482D01*
X184511864Y-88657482D02*
X184642817Y-88919386D01*
X184642817Y-88919386D02*
X184642817Y-89181291D01*
X184642817Y-89181291D02*
X184511864Y-89443196D01*
X184511864Y-89443196D02*
X184380912Y-89574148D01*
X184380912Y-89574148D02*
X184119007Y-89705101D01*
X184119007Y-89705101D02*
X183202340Y-89705101D01*
D12*
X176545425Y-73987336D02*
X176831139Y-74082574D01*
X176831139Y-74082574D02*
X177307330Y-74082574D01*
X177307330Y-74082574D02*
X177497806Y-73987336D01*
X177497806Y-73987336D02*
X177593044Y-73892097D01*
X177593044Y-73892097D02*
X177688282Y-73701621D01*
X177688282Y-73701621D02*
X177688282Y-73511145D01*
X177688282Y-73511145D02*
X177593044Y-73320669D01*
X177593044Y-73320669D02*
X177497806Y-73225431D01*
X177497806Y-73225431D02*
X177307330Y-73130193D01*
X177307330Y-73130193D02*
X176926377Y-73034955D01*
X176926377Y-73034955D02*
X176735901Y-72939716D01*
X176735901Y-72939716D02*
X176640663Y-72844478D01*
X176640663Y-72844478D02*
X176545425Y-72654002D01*
X176545425Y-72654002D02*
X176545425Y-72463526D01*
X176545425Y-72463526D02*
X176640663Y-72273050D01*
X176640663Y-72273050D02*
X176735901Y-72177812D01*
X176735901Y-72177812D02*
X176926377Y-72082574D01*
X176926377Y-72082574D02*
X177402568Y-72082574D01*
X177402568Y-72082574D02*
X177688282Y-72177812D01*
X178354949Y-72082574D02*
X178831139Y-74082574D01*
X178831139Y-74082574D02*
X179212092Y-72654002D01*
X179212092Y-72654002D02*
X179593044Y-74082574D01*
X179593044Y-74082574D02*
X180069235Y-72082574D01*
X180735901Y-73511145D02*
X181688282Y-73511145D01*
X180545425Y-74082574D02*
X181212091Y-72082574D01*
X181212091Y-72082574D02*
X181878758Y-74082574D01*
X183688282Y-74082574D02*
X183021615Y-73130193D01*
X182545425Y-74082574D02*
X182545425Y-72082574D01*
X182545425Y-72082574D02*
X183307330Y-72082574D01*
X183307330Y-72082574D02*
X183497806Y-72177812D01*
X183497806Y-72177812D02*
X183593044Y-72273050D01*
X183593044Y-72273050D02*
X183688282Y-72463526D01*
X183688282Y-72463526D02*
X183688282Y-72749240D01*
X183688282Y-72749240D02*
X183593044Y-72939716D01*
X183593044Y-72939716D02*
X183497806Y-73034955D01*
X183497806Y-73034955D02*
X183307330Y-73130193D01*
X183307330Y-73130193D02*
X182545425Y-73130193D01*
X184545425Y-72082574D02*
X184545425Y-73701621D01*
X184545425Y-73701621D02*
X184640663Y-73892097D01*
X184640663Y-73892097D02*
X184735901Y-73987336D01*
X184735901Y-73987336D02*
X184926377Y-74082574D01*
X184926377Y-74082574D02*
X185307330Y-74082574D01*
X185307330Y-74082574D02*
X185497806Y-73987336D01*
X185497806Y-73987336D02*
X185593044Y-73892097D01*
X185593044Y-73892097D02*
X185688282Y-73701621D01*
X185688282Y-73701621D02*
X185688282Y-72082574D01*
X186640663Y-74082574D02*
X186640663Y-72082574D01*
X186640663Y-72082574D02*
X187402568Y-72082574D01*
X187402568Y-72082574D02*
X187593044Y-72177812D01*
X187593044Y-72177812D02*
X187688282Y-72273050D01*
X187688282Y-72273050D02*
X187783520Y-72463526D01*
X187783520Y-72463526D02*
X187783520Y-72749240D01*
X187783520Y-72749240D02*
X187688282Y-72939716D01*
X187688282Y-72939716D02*
X187593044Y-73034955D01*
X187593044Y-73034955D02*
X187402568Y-73130193D01*
X187402568Y-73130193D02*
X186640663Y-73130193D01*
X176545425Y-76731033D02*
X177497806Y-76731033D01*
X176354949Y-77302462D02*
X177021615Y-75302462D01*
X177021615Y-75302462D02*
X177688282Y-77302462D01*
X179021616Y-76254843D02*
X179307330Y-76350081D01*
X179307330Y-76350081D02*
X179402568Y-76445319D01*
X179402568Y-76445319D02*
X179497806Y-76635795D01*
X179497806Y-76635795D02*
X179497806Y-76921509D01*
X179497806Y-76921509D02*
X179402568Y-77111985D01*
X179402568Y-77111985D02*
X179307330Y-77207224D01*
X179307330Y-77207224D02*
X179116854Y-77302462D01*
X179116854Y-77302462D02*
X178354949Y-77302462D01*
X178354949Y-77302462D02*
X178354949Y-75302462D01*
X178354949Y-75302462D02*
X179021616Y-75302462D01*
X179021616Y-75302462D02*
X179212092Y-75397700D01*
X179212092Y-75397700D02*
X179307330Y-75492938D01*
X179307330Y-75492938D02*
X179402568Y-75683414D01*
X179402568Y-75683414D02*
X179402568Y-75873890D01*
X179402568Y-75873890D02*
X179307330Y-76064366D01*
X179307330Y-76064366D02*
X179212092Y-76159604D01*
X179212092Y-76159604D02*
X179021616Y-76254843D01*
X179021616Y-76254843D02*
X178354949Y-76254843D01*
X180354949Y-77302462D02*
X180354949Y-75302462D01*
X180354949Y-76254843D02*
X181497806Y-76254843D01*
X181497806Y-77302462D02*
X181497806Y-75302462D01*
X182354949Y-76731033D02*
X183307330Y-76731033D01*
X182164473Y-77302462D02*
X182831139Y-75302462D01*
X182831139Y-75302462D02*
X183497806Y-77302462D01*
X184545425Y-76350081D02*
X184545425Y-77302462D01*
X183878759Y-75302462D02*
X184545425Y-76350081D01*
X184545425Y-76350081D02*
X185212092Y-75302462D01*
X176545425Y-79950921D02*
X177497806Y-79950921D01*
X176354949Y-80522350D02*
X177021615Y-78522350D01*
X177021615Y-78522350D02*
X177688282Y-80522350D01*
X178354949Y-80522350D02*
X178354949Y-78522350D01*
X178354949Y-78522350D02*
X178831139Y-78522350D01*
X178831139Y-78522350D02*
X179116854Y-78617588D01*
X179116854Y-78617588D02*
X179307330Y-78808064D01*
X179307330Y-78808064D02*
X179402568Y-78998540D01*
X179402568Y-78998540D02*
X179497806Y-79379492D01*
X179497806Y-79379492D02*
X179497806Y-79665207D01*
X179497806Y-79665207D02*
X179402568Y-80046159D01*
X179402568Y-80046159D02*
X179307330Y-80236635D01*
X179307330Y-80236635D02*
X179116854Y-80427112D01*
X179116854Y-80427112D02*
X178831139Y-80522350D01*
X178831139Y-80522350D02*
X178354949Y-80522350D01*
X180354949Y-80522350D02*
X180354949Y-78522350D01*
X181021616Y-78522350D02*
X182164473Y-78522350D01*
X181593044Y-80522350D02*
X181593044Y-78522350D01*
X183212092Y-79569969D02*
X183212092Y-80522350D01*
X182545426Y-78522350D02*
X183212092Y-79569969D01*
X183212092Y-79569969D02*
X183878759Y-78522350D01*
X184450188Y-79950921D02*
X185402569Y-79950921D01*
X184259712Y-80522350D02*
X184926378Y-78522350D01*
X184926378Y-78522350D02*
X185593045Y-80522350D01*
X177307330Y-82694619D02*
X177593044Y-82789857D01*
X177593044Y-82789857D02*
X177688282Y-82885095D01*
X177688282Y-82885095D02*
X177783520Y-83075571D01*
X177783520Y-83075571D02*
X177783520Y-83361285D01*
X177783520Y-83361285D02*
X177688282Y-83551761D01*
X177688282Y-83551761D02*
X177593044Y-83647000D01*
X177593044Y-83647000D02*
X177402568Y-83742238D01*
X177402568Y-83742238D02*
X176640663Y-83742238D01*
X176640663Y-83742238D02*
X176640663Y-81742238D01*
X176640663Y-81742238D02*
X177307330Y-81742238D01*
X177307330Y-81742238D02*
X177497806Y-81837476D01*
X177497806Y-81837476D02*
X177593044Y-81932714D01*
X177593044Y-81932714D02*
X177688282Y-82123190D01*
X177688282Y-82123190D02*
X177688282Y-82313666D01*
X177688282Y-82313666D02*
X177593044Y-82504142D01*
X177593044Y-82504142D02*
X177497806Y-82599380D01*
X177497806Y-82599380D02*
X177307330Y-82694619D01*
X177307330Y-82694619D02*
X176640663Y-82694619D01*
X178640663Y-83551761D02*
X178735901Y-83647000D01*
X178735901Y-83647000D02*
X178640663Y-83742238D01*
X178640663Y-83742238D02*
X178545425Y-83647000D01*
X178545425Y-83647000D02*
X178640663Y-83551761D01*
X178640663Y-83551761D02*
X178640663Y-83742238D01*
X179307330Y-81742238D02*
X180450187Y-81742238D01*
X179878758Y-83742238D02*
X179878758Y-81742238D01*
X181116854Y-83742238D02*
X181116854Y-81742238D01*
X181116854Y-82694619D02*
X182259711Y-82694619D01*
X182259711Y-83742238D02*
X182259711Y-81742238D01*
X183116854Y-83170809D02*
X184069235Y-83170809D01*
X182926378Y-83742238D02*
X183593044Y-81742238D01*
X183593044Y-81742238D02*
X184259711Y-83742238D01*
X184926378Y-83742238D02*
X184926378Y-81742238D01*
X184926378Y-81742238D02*
X186069235Y-83742238D01*
X186069235Y-83742238D02*
X186069235Y-81742238D01*
X187021616Y-81742238D02*
X187021616Y-83361285D01*
X187021616Y-83361285D02*
X187116854Y-83551761D01*
X187116854Y-83551761D02*
X187212092Y-83647000D01*
X187212092Y-83647000D02*
X187402568Y-83742238D01*
X187402568Y-83742238D02*
X187783521Y-83742238D01*
X187783521Y-83742238D02*
X187973997Y-83647000D01*
X187973997Y-83647000D02*
X188069235Y-83551761D01*
X188069235Y-83551761D02*
X188164473Y-83361285D01*
X188164473Y-83361285D02*
X188164473Y-81742238D01*
X189688283Y-81742238D02*
X189688283Y-83170809D01*
X189688283Y-83170809D02*
X189593044Y-83456523D01*
X189593044Y-83456523D02*
X189402568Y-83647000D01*
X189402568Y-83647000D02*
X189116854Y-83742238D01*
X189116854Y-83742238D02*
X188926378Y-83742238D01*
X163295425Y-93682714D02*
X163390663Y-93587476D01*
X163390663Y-93587476D02*
X163581139Y-93492238D01*
X163581139Y-93492238D02*
X164057330Y-93492238D01*
X164057330Y-93492238D02*
X164247806Y-93587476D01*
X164247806Y-93587476D02*
X164343044Y-93682714D01*
X164343044Y-93682714D02*
X164438282Y-93873190D01*
X164438282Y-93873190D02*
X164438282Y-94063666D01*
X164438282Y-94063666D02*
X164343044Y-94349380D01*
X164343044Y-94349380D02*
X163200187Y-95492238D01*
X163200187Y-95492238D02*
X164438282Y-95492238D01*
X165200187Y-93682714D02*
X165295425Y-93587476D01*
X165295425Y-93587476D02*
X165485901Y-93492238D01*
X165485901Y-93492238D02*
X165962092Y-93492238D01*
X165962092Y-93492238D02*
X166152568Y-93587476D01*
X166152568Y-93587476D02*
X166247806Y-93682714D01*
X166247806Y-93682714D02*
X166343044Y-93873190D01*
X166343044Y-93873190D02*
X166343044Y-94063666D01*
X166343044Y-94063666D02*
X166247806Y-94349380D01*
X166247806Y-94349380D02*
X165104949Y-95492238D01*
X165104949Y-95492238D02*
X166343044Y-95492238D01*
X167581139Y-93492238D02*
X167771616Y-93492238D01*
X167771616Y-93492238D02*
X167962092Y-93587476D01*
X167962092Y-93587476D02*
X168057330Y-93682714D01*
X168057330Y-93682714D02*
X168152568Y-93873190D01*
X168152568Y-93873190D02*
X168247806Y-94254142D01*
X168247806Y-94254142D02*
X168247806Y-94730333D01*
X168247806Y-94730333D02*
X168152568Y-95111285D01*
X168152568Y-95111285D02*
X168057330Y-95301761D01*
X168057330Y-95301761D02*
X167962092Y-95397000D01*
X167962092Y-95397000D02*
X167771616Y-95492238D01*
X167771616Y-95492238D02*
X167581139Y-95492238D01*
X167581139Y-95492238D02*
X167390663Y-95397000D01*
X167390663Y-95397000D02*
X167295425Y-95301761D01*
X167295425Y-95301761D02*
X167200187Y-95111285D01*
X167200187Y-95111285D02*
X167104949Y-94730333D01*
X167104949Y-94730333D02*
X167104949Y-94254142D01*
X167104949Y-94254142D02*
X167200187Y-93873190D01*
X167200187Y-93873190D02*
X167295425Y-93682714D01*
X167295425Y-93682714D02*
X167390663Y-93587476D01*
X167390663Y-93587476D02*
X167581139Y-93492238D01*
X168914473Y-94158904D02*
X169390663Y-95492238D01*
X169390663Y-95492238D02*
X169866854Y-94158904D01*
X171200188Y-96254142D02*
X171104949Y-96158904D01*
X171104949Y-96158904D02*
X170914473Y-95873190D01*
X170914473Y-95873190D02*
X170819235Y-95682714D01*
X170819235Y-95682714D02*
X170723997Y-95397000D01*
X170723997Y-95397000D02*
X170628759Y-94920809D01*
X170628759Y-94920809D02*
X170628759Y-94539857D01*
X170628759Y-94539857D02*
X170723997Y-94063666D01*
X170723997Y-94063666D02*
X170819235Y-93777952D01*
X170819235Y-93777952D02*
X170914473Y-93587476D01*
X170914473Y-93587476D02*
X171104949Y-93301761D01*
X171104949Y-93301761D02*
X171200188Y-93206523D01*
X171866854Y-94920809D02*
X172819235Y-94920809D01*
X171676378Y-95492238D02*
X172343044Y-93492238D01*
X172343044Y-93492238D02*
X173009711Y-95492238D01*
X174819235Y-95301761D02*
X174723997Y-95397000D01*
X174723997Y-95397000D02*
X174438283Y-95492238D01*
X174438283Y-95492238D02*
X174247807Y-95492238D01*
X174247807Y-95492238D02*
X173962092Y-95397000D01*
X173962092Y-95397000D02*
X173771616Y-95206523D01*
X173771616Y-95206523D02*
X173676378Y-95016047D01*
X173676378Y-95016047D02*
X173581140Y-94635095D01*
X173581140Y-94635095D02*
X173581140Y-94349380D01*
X173581140Y-94349380D02*
X173676378Y-93968428D01*
X173676378Y-93968428D02*
X173771616Y-93777952D01*
X173771616Y-93777952D02*
X173962092Y-93587476D01*
X173962092Y-93587476D02*
X174247807Y-93492238D01*
X174247807Y-93492238D02*
X174438283Y-93492238D01*
X174438283Y-93492238D02*
X174723997Y-93587476D01*
X174723997Y-93587476D02*
X174819235Y-93682714D01*
X175485902Y-96254142D02*
X175581140Y-96158904D01*
X175581140Y-96158904D02*
X175771616Y-95873190D01*
X175771616Y-95873190D02*
X175866854Y-95682714D01*
X175866854Y-95682714D02*
X175962092Y-95397000D01*
X175962092Y-95397000D02*
X176057330Y-94920809D01*
X176057330Y-94920809D02*
X176057330Y-94539857D01*
X176057330Y-94539857D02*
X175962092Y-94063666D01*
X175962092Y-94063666D02*
X175866854Y-93777952D01*
X175866854Y-93777952D02*
X175771616Y-93587476D01*
X175771616Y-93587476D02*
X175581140Y-93301761D01*
X175581140Y-93301761D02*
X175485902Y-93206523D01*
X178533521Y-94730333D02*
X180057331Y-94730333D01*
X183485902Y-93492238D02*
X182533521Y-93492238D01*
X182533521Y-93492238D02*
X182438283Y-94444619D01*
X182438283Y-94444619D02*
X182533521Y-94349380D01*
X182533521Y-94349380D02*
X182723997Y-94254142D01*
X182723997Y-94254142D02*
X183200188Y-94254142D01*
X183200188Y-94254142D02*
X183390664Y-94349380D01*
X183390664Y-94349380D02*
X183485902Y-94444619D01*
X183485902Y-94444619D02*
X183581140Y-94635095D01*
X183581140Y-94635095D02*
X183581140Y-95111285D01*
X183581140Y-95111285D02*
X183485902Y-95301761D01*
X183485902Y-95301761D02*
X183390664Y-95397000D01*
X183390664Y-95397000D02*
X183200188Y-95492238D01*
X183200188Y-95492238D02*
X182723997Y-95492238D01*
X182723997Y-95492238D02*
X182533521Y-95397000D01*
X182533521Y-95397000D02*
X182438283Y-95301761D01*
X184247807Y-94158904D02*
X184723997Y-95492238D01*
X184723997Y-95492238D02*
X185200188Y-94158904D01*
X186533522Y-96254142D02*
X186438283Y-96158904D01*
X186438283Y-96158904D02*
X186247807Y-95873190D01*
X186247807Y-95873190D02*
X186152569Y-95682714D01*
X186152569Y-95682714D02*
X186057331Y-95397000D01*
X186057331Y-95397000D02*
X185962093Y-94920809D01*
X185962093Y-94920809D02*
X185962093Y-94539857D01*
X185962093Y-94539857D02*
X186057331Y-94063666D01*
X186057331Y-94063666D02*
X186152569Y-93777952D01*
X186152569Y-93777952D02*
X186247807Y-93587476D01*
X186247807Y-93587476D02*
X186438283Y-93301761D01*
X186438283Y-93301761D02*
X186533522Y-93206523D01*
X187295426Y-95492238D02*
X187295426Y-93492238D01*
X187295426Y-93492238D02*
X187771616Y-93492238D01*
X187771616Y-93492238D02*
X188057331Y-93587476D01*
X188057331Y-93587476D02*
X188247807Y-93777952D01*
X188247807Y-93777952D02*
X188343045Y-93968428D01*
X188343045Y-93968428D02*
X188438283Y-94349380D01*
X188438283Y-94349380D02*
X188438283Y-94635095D01*
X188438283Y-94635095D02*
X188343045Y-95016047D01*
X188343045Y-95016047D02*
X188247807Y-95206523D01*
X188247807Y-95206523D02*
X188057331Y-95397000D01*
X188057331Y-95397000D02*
X187771616Y-95492238D01*
X187771616Y-95492238D02*
X187295426Y-95492238D01*
X190438283Y-95301761D02*
X190343045Y-95397000D01*
X190343045Y-95397000D02*
X190057331Y-95492238D01*
X190057331Y-95492238D02*
X189866855Y-95492238D01*
X189866855Y-95492238D02*
X189581140Y-95397000D01*
X189581140Y-95397000D02*
X189390664Y-95206523D01*
X189390664Y-95206523D02*
X189295426Y-95016047D01*
X189295426Y-95016047D02*
X189200188Y-94635095D01*
X189200188Y-94635095D02*
X189200188Y-94349380D01*
X189200188Y-94349380D02*
X189295426Y-93968428D01*
X189295426Y-93968428D02*
X189390664Y-93777952D01*
X189390664Y-93777952D02*
X189581140Y-93587476D01*
X189581140Y-93587476D02*
X189866855Y-93492238D01*
X189866855Y-93492238D02*
X190057331Y-93492238D01*
X190057331Y-93492238D02*
X190343045Y-93587476D01*
X190343045Y-93587476D02*
X190438283Y-93682714D01*
X191104950Y-96254142D02*
X191200188Y-96158904D01*
X191200188Y-96158904D02*
X191390664Y-95873190D01*
X191390664Y-95873190D02*
X191485902Y-95682714D01*
X191485902Y-95682714D02*
X191581140Y-95397000D01*
X191581140Y-95397000D02*
X191676378Y-94920809D01*
X191676378Y-94920809D02*
X191676378Y-94539857D01*
X191676378Y-94539857D02*
X191581140Y-94063666D01*
X191581140Y-94063666D02*
X191485902Y-93777952D01*
X191485902Y-93777952D02*
X191390664Y-93587476D01*
X191390664Y-93587476D02*
X191200188Y-93301761D01*
X191200188Y-93301761D02*
X191104950Y-93206523D01*
D13*
X130761905Y-95924819D02*
X130761905Y-94924819D01*
X130761905Y-94924819D02*
X131000000Y-94924819D01*
X131000000Y-94924819D02*
X131142857Y-94972438D01*
X131142857Y-94972438D02*
X131238095Y-95067676D01*
X131238095Y-95067676D02*
X131285714Y-95162914D01*
X131285714Y-95162914D02*
X131333333Y-95353390D01*
X131333333Y-95353390D02*
X131333333Y-95496247D01*
X131333333Y-95496247D02*
X131285714Y-95686723D01*
X131285714Y-95686723D02*
X131238095Y-95781961D01*
X131238095Y-95781961D02*
X131142857Y-95877200D01*
X131142857Y-95877200D02*
X131000000Y-95924819D01*
X131000000Y-95924819D02*
X130761905Y-95924819D01*
X132238095Y-94924819D02*
X131761905Y-94924819D01*
X131761905Y-94924819D02*
X131714286Y-95401009D01*
X131714286Y-95401009D02*
X131761905Y-95353390D01*
X131761905Y-95353390D02*
X131857143Y-95305771D01*
X131857143Y-95305771D02*
X132095238Y-95305771D01*
X132095238Y-95305771D02*
X132190476Y-95353390D01*
X132190476Y-95353390D02*
X132238095Y-95401009D01*
X132238095Y-95401009D02*
X132285714Y-95496247D01*
X132285714Y-95496247D02*
X132285714Y-95734342D01*
X132285714Y-95734342D02*
X132238095Y-95829580D01*
X132238095Y-95829580D02*
X132190476Y-95877200D01*
X132190476Y-95877200D02*
X132095238Y-95924819D01*
X132095238Y-95924819D02*
X131857143Y-95924819D01*
X131857143Y-95924819D02*
X131761905Y-95877200D01*
X131761905Y-95877200D02*
X131714286Y-95829580D01*
X136318095Y-95554819D02*
X136318095Y-94554819D01*
X136889523Y-95554819D02*
X136460952Y-94983390D01*
X136889523Y-94554819D02*
X136318095Y-95126247D01*
X138583333Y-44959580D02*
X138535714Y-45007200D01*
X138535714Y-45007200D02*
X138392857Y-45054819D01*
X138392857Y-45054819D02*
X138297619Y-45054819D01*
X138297619Y-45054819D02*
X138154762Y-45007200D01*
X138154762Y-45007200D02*
X138059524Y-44911961D01*
X138059524Y-44911961D02*
X138011905Y-44816723D01*
X138011905Y-44816723D02*
X137964286Y-44626247D01*
X137964286Y-44626247D02*
X137964286Y-44483390D01*
X137964286Y-44483390D02*
X138011905Y-44292914D01*
X138011905Y-44292914D02*
X138059524Y-44197676D01*
X138059524Y-44197676D02*
X138154762Y-44102438D01*
X138154762Y-44102438D02*
X138297619Y-44054819D01*
X138297619Y-44054819D02*
X138392857Y-44054819D01*
X138392857Y-44054819D02*
X138535714Y-44102438D01*
X138535714Y-44102438D02*
X138583333Y-44150057D01*
X139440476Y-44388152D02*
X139440476Y-45054819D01*
X139202381Y-44007200D02*
X138964286Y-44721485D01*
X138964286Y-44721485D02*
X139583333Y-44721485D01*
X85656666Y-87941009D02*
X85323333Y-87941009D01*
X85323333Y-88464819D02*
X85323333Y-87464819D01*
X85323333Y-87464819D02*
X85799523Y-87464819D01*
X86704285Y-88464819D02*
X86132857Y-88464819D01*
X86418571Y-88464819D02*
X86418571Y-87464819D01*
X86418571Y-87464819D02*
X86323333Y-87607676D01*
X86323333Y-87607676D02*
X86228095Y-87702914D01*
X86228095Y-87702914D02*
X86132857Y-87750533D01*
X160531905Y-61994819D02*
X160531905Y-60994819D01*
X160531905Y-60994819D02*
X160770000Y-60994819D01*
X160770000Y-60994819D02*
X160912857Y-61042438D01*
X160912857Y-61042438D02*
X161008095Y-61137676D01*
X161008095Y-61137676D02*
X161055714Y-61232914D01*
X161055714Y-61232914D02*
X161103333Y-61423390D01*
X161103333Y-61423390D02*
X161103333Y-61566247D01*
X161103333Y-61566247D02*
X161055714Y-61756723D01*
X161055714Y-61756723D02*
X161008095Y-61851961D01*
X161008095Y-61851961D02*
X160912857Y-61947200D01*
X160912857Y-61947200D02*
X160770000Y-61994819D01*
X160770000Y-61994819D02*
X160531905Y-61994819D01*
X161436667Y-60994819D02*
X162055714Y-60994819D01*
X162055714Y-60994819D02*
X161722381Y-61375771D01*
X161722381Y-61375771D02*
X161865238Y-61375771D01*
X161865238Y-61375771D02*
X161960476Y-61423390D01*
X161960476Y-61423390D02*
X162008095Y-61471009D01*
X162008095Y-61471009D02*
X162055714Y-61566247D01*
X162055714Y-61566247D02*
X162055714Y-61804342D01*
X162055714Y-61804342D02*
X162008095Y-61899580D01*
X162008095Y-61899580D02*
X161960476Y-61947200D01*
X161960476Y-61947200D02*
X161865238Y-61994819D01*
X161865238Y-61994819D02*
X161579524Y-61994819D01*
X161579524Y-61994819D02*
X161484286Y-61947200D01*
X161484286Y-61947200D02*
X161436667Y-61899580D01*
X141743095Y-58584819D02*
X142314523Y-58584819D01*
X142028809Y-59584819D02*
X142028809Y-58584819D01*
X143171666Y-59584819D02*
X142600238Y-59584819D01*
X142885952Y-59584819D02*
X142885952Y-58584819D01*
X142885952Y-58584819D02*
X142790714Y-58727676D01*
X142790714Y-58727676D02*
X142695476Y-58822914D01*
X142695476Y-58822914D02*
X142600238Y-58870533D01*
X94600057Y-61375238D02*
X94552438Y-61470476D01*
X94552438Y-61470476D02*
X94457200Y-61565714D01*
X94457200Y-61565714D02*
X94314342Y-61708571D01*
X94314342Y-61708571D02*
X94266723Y-61803809D01*
X94266723Y-61803809D02*
X94266723Y-61899047D01*
X94504819Y-61851428D02*
X94457200Y-61946666D01*
X94457200Y-61946666D02*
X94361961Y-62041904D01*
X94361961Y-62041904D02*
X94171485Y-62089523D01*
X94171485Y-62089523D02*
X93838152Y-62089523D01*
X93838152Y-62089523D02*
X93647676Y-62041904D01*
X93647676Y-62041904D02*
X93552438Y-61946666D01*
X93552438Y-61946666D02*
X93504819Y-61851428D01*
X93504819Y-61851428D02*
X93504819Y-61660952D01*
X93504819Y-61660952D02*
X93552438Y-61565714D01*
X93552438Y-61565714D02*
X93647676Y-61470476D01*
X93647676Y-61470476D02*
X93838152Y-61422857D01*
X93838152Y-61422857D02*
X94171485Y-61422857D01*
X94171485Y-61422857D02*
X94361961Y-61470476D01*
X94361961Y-61470476D02*
X94457200Y-61565714D01*
X94457200Y-61565714D02*
X94504819Y-61660952D01*
X94504819Y-61660952D02*
X94504819Y-61851428D01*
X94504819Y-60470476D02*
X94504819Y-61041904D01*
X94504819Y-60756190D02*
X93504819Y-60756190D01*
X93504819Y-60756190D02*
X93647676Y-60851428D01*
X93647676Y-60851428D02*
X93742914Y-60946666D01*
X93742914Y-60946666D02*
X93790533Y-61041904D01*
X130424819Y-66238094D02*
X129424819Y-66238094D01*
X129424819Y-66238094D02*
X129424819Y-65999999D01*
X129424819Y-65999999D02*
X129472438Y-65857142D01*
X129472438Y-65857142D02*
X129567676Y-65761904D01*
X129567676Y-65761904D02*
X129662914Y-65714285D01*
X129662914Y-65714285D02*
X129853390Y-65666666D01*
X129853390Y-65666666D02*
X129996247Y-65666666D01*
X129996247Y-65666666D02*
X130186723Y-65714285D01*
X130186723Y-65714285D02*
X130281961Y-65761904D01*
X130281961Y-65761904D02*
X130377200Y-65857142D01*
X130377200Y-65857142D02*
X130424819Y-65999999D01*
X130424819Y-65999999D02*
X130424819Y-66238094D01*
X129424819Y-64809523D02*
X129424819Y-64999999D01*
X129424819Y-64999999D02*
X129472438Y-65095237D01*
X129472438Y-65095237D02*
X129520057Y-65142856D01*
X129520057Y-65142856D02*
X129662914Y-65238094D01*
X129662914Y-65238094D02*
X129853390Y-65285713D01*
X129853390Y-65285713D02*
X130234342Y-65285713D01*
X130234342Y-65285713D02*
X130329580Y-65238094D01*
X130329580Y-65238094D02*
X130377200Y-65190475D01*
X130377200Y-65190475D02*
X130424819Y-65095237D01*
X130424819Y-65095237D02*
X130424819Y-64904761D01*
X130424819Y-64904761D02*
X130377200Y-64809523D01*
X130377200Y-64809523D02*
X130329580Y-64761904D01*
X130329580Y-64761904D02*
X130234342Y-64714285D01*
X130234342Y-64714285D02*
X129996247Y-64714285D01*
X129996247Y-64714285D02*
X129901009Y-64761904D01*
X129901009Y-64761904D02*
X129853390Y-64809523D01*
X129853390Y-64809523D02*
X129805771Y-64904761D01*
X129805771Y-64904761D02*
X129805771Y-65095237D01*
X129805771Y-65095237D02*
X129853390Y-65190475D01*
X129853390Y-65190475D02*
X129901009Y-65238094D01*
X129901009Y-65238094D02*
X129996247Y-65285713D01*
X130054819Y-60681904D02*
X129054819Y-60681904D01*
X130054819Y-60110476D02*
X129483390Y-60539047D01*
X129054819Y-60110476D02*
X129626247Y-60681904D01*
X87424819Y-74738094D02*
X86424819Y-74738094D01*
X86424819Y-74738094D02*
X86424819Y-74499999D01*
X86424819Y-74499999D02*
X86472438Y-74357142D01*
X86472438Y-74357142D02*
X86567676Y-74261904D01*
X86567676Y-74261904D02*
X86662914Y-74214285D01*
X86662914Y-74214285D02*
X86853390Y-74166666D01*
X86853390Y-74166666D02*
X86996247Y-74166666D01*
X86996247Y-74166666D02*
X87186723Y-74214285D01*
X87186723Y-74214285D02*
X87281961Y-74261904D01*
X87281961Y-74261904D02*
X87377200Y-74357142D01*
X87377200Y-74357142D02*
X87424819Y-74499999D01*
X87424819Y-74499999D02*
X87424819Y-74738094D01*
X86758152Y-73309523D02*
X87424819Y-73309523D01*
X86377200Y-73547618D02*
X87091485Y-73785713D01*
X87091485Y-73785713D02*
X87091485Y-73166666D01*
X87054819Y-69181904D02*
X86054819Y-69181904D01*
X87054819Y-68610476D02*
X86483390Y-69039047D01*
X86054819Y-68610476D02*
X86626247Y-69181904D01*
X113359580Y-49416666D02*
X113407200Y-49464285D01*
X113407200Y-49464285D02*
X113454819Y-49607142D01*
X113454819Y-49607142D02*
X113454819Y-49702380D01*
X113454819Y-49702380D02*
X113407200Y-49845237D01*
X113407200Y-49845237D02*
X113311961Y-49940475D01*
X113311961Y-49940475D02*
X113216723Y-49988094D01*
X113216723Y-49988094D02*
X113026247Y-50035713D01*
X113026247Y-50035713D02*
X112883390Y-50035713D01*
X112883390Y-50035713D02*
X112692914Y-49988094D01*
X112692914Y-49988094D02*
X112597676Y-49940475D01*
X112597676Y-49940475D02*
X112502438Y-49845237D01*
X112502438Y-49845237D02*
X112454819Y-49702380D01*
X112454819Y-49702380D02*
X112454819Y-49607142D01*
X112454819Y-49607142D02*
X112502438Y-49464285D01*
X112502438Y-49464285D02*
X112550057Y-49416666D01*
X112454819Y-49083332D02*
X112454819Y-48464285D01*
X112454819Y-48464285D02*
X112835771Y-48797618D01*
X112835771Y-48797618D02*
X112835771Y-48654761D01*
X112835771Y-48654761D02*
X112883390Y-48559523D01*
X112883390Y-48559523D02*
X112931009Y-48511904D01*
X112931009Y-48511904D02*
X113026247Y-48464285D01*
X113026247Y-48464285D02*
X113264342Y-48464285D01*
X113264342Y-48464285D02*
X113359580Y-48511904D01*
X113359580Y-48511904D02*
X113407200Y-48559523D01*
X113407200Y-48559523D02*
X113454819Y-48654761D01*
X113454819Y-48654761D02*
X113454819Y-48940475D01*
X113454819Y-48940475D02*
X113407200Y-49035713D01*
X113407200Y-49035713D02*
X113359580Y-49083332D01*
X150083333Y-88959580D02*
X150035714Y-89007200D01*
X150035714Y-89007200D02*
X149892857Y-89054819D01*
X149892857Y-89054819D02*
X149797619Y-89054819D01*
X149797619Y-89054819D02*
X149654762Y-89007200D01*
X149654762Y-89007200D02*
X149559524Y-88911961D01*
X149559524Y-88911961D02*
X149511905Y-88816723D01*
X149511905Y-88816723D02*
X149464286Y-88626247D01*
X149464286Y-88626247D02*
X149464286Y-88483390D01*
X149464286Y-88483390D02*
X149511905Y-88292914D01*
X149511905Y-88292914D02*
X149559524Y-88197676D01*
X149559524Y-88197676D02*
X149654762Y-88102438D01*
X149654762Y-88102438D02*
X149797619Y-88054819D01*
X149797619Y-88054819D02*
X149892857Y-88054819D01*
X149892857Y-88054819D02*
X150035714Y-88102438D01*
X150035714Y-88102438D02*
X150083333Y-88150057D01*
X150988095Y-88054819D02*
X150511905Y-88054819D01*
X150511905Y-88054819D02*
X150464286Y-88531009D01*
X150464286Y-88531009D02*
X150511905Y-88483390D01*
X150511905Y-88483390D02*
X150607143Y-88435771D01*
X150607143Y-88435771D02*
X150845238Y-88435771D01*
X150845238Y-88435771D02*
X150940476Y-88483390D01*
X150940476Y-88483390D02*
X150988095Y-88531009D01*
X150988095Y-88531009D02*
X151035714Y-88626247D01*
X151035714Y-88626247D02*
X151035714Y-88864342D01*
X151035714Y-88864342D02*
X150988095Y-88959580D01*
X150988095Y-88959580D02*
X150940476Y-89007200D01*
X150940476Y-89007200D02*
X150845238Y-89054819D01*
X150845238Y-89054819D02*
X150607143Y-89054819D01*
X150607143Y-89054819D02*
X150511905Y-89007200D01*
X150511905Y-89007200D02*
X150464286Y-88959580D01*
X99824819Y-91666666D02*
X99348628Y-91999999D01*
X99824819Y-92238094D02*
X98824819Y-92238094D01*
X98824819Y-92238094D02*
X98824819Y-91857142D01*
X98824819Y-91857142D02*
X98872438Y-91761904D01*
X98872438Y-91761904D02*
X98920057Y-91714285D01*
X98920057Y-91714285D02*
X99015295Y-91666666D01*
X99015295Y-91666666D02*
X99158152Y-91666666D01*
X99158152Y-91666666D02*
X99253390Y-91714285D01*
X99253390Y-91714285D02*
X99301009Y-91761904D01*
X99301009Y-91761904D02*
X99348628Y-91857142D01*
X99348628Y-91857142D02*
X99348628Y-92238094D01*
X98920057Y-91285713D02*
X98872438Y-91238094D01*
X98872438Y-91238094D02*
X98824819Y-91142856D01*
X98824819Y-91142856D02*
X98824819Y-90904761D01*
X98824819Y-90904761D02*
X98872438Y-90809523D01*
X98872438Y-90809523D02*
X98920057Y-90761904D01*
X98920057Y-90761904D02*
X99015295Y-90714285D01*
X99015295Y-90714285D02*
X99110533Y-90714285D01*
X99110533Y-90714285D02*
X99253390Y-90761904D01*
X99253390Y-90761904D02*
X99824819Y-91333332D01*
X99824819Y-91333332D02*
X99824819Y-90714285D01*
X130523333Y-78584819D02*
X130190000Y-78108628D01*
X129951905Y-78584819D02*
X129951905Y-77584819D01*
X129951905Y-77584819D02*
X130332857Y-77584819D01*
X130332857Y-77584819D02*
X130428095Y-77632438D01*
X130428095Y-77632438D02*
X130475714Y-77680057D01*
X130475714Y-77680057D02*
X130523333Y-77775295D01*
X130523333Y-77775295D02*
X130523333Y-77918152D01*
X130523333Y-77918152D02*
X130475714Y-78013390D01*
X130475714Y-78013390D02*
X130428095Y-78061009D01*
X130428095Y-78061009D02*
X130332857Y-78108628D01*
X130332857Y-78108628D02*
X129951905Y-78108628D01*
X131380476Y-77918152D02*
X131380476Y-78584819D01*
X131142381Y-77537200D02*
X130904286Y-78251485D01*
X130904286Y-78251485D02*
X131523333Y-78251485D01*
X109074819Y-75548094D02*
X108074819Y-75548094D01*
X108074819Y-75548094D02*
X108074819Y-75309999D01*
X108074819Y-75309999D02*
X108122438Y-75167142D01*
X108122438Y-75167142D02*
X108217676Y-75071904D01*
X108217676Y-75071904D02*
X108312914Y-75024285D01*
X108312914Y-75024285D02*
X108503390Y-74976666D01*
X108503390Y-74976666D02*
X108646247Y-74976666D01*
X108646247Y-74976666D02*
X108836723Y-75024285D01*
X108836723Y-75024285D02*
X108931961Y-75071904D01*
X108931961Y-75071904D02*
X109027200Y-75167142D01*
X109027200Y-75167142D02*
X109074819Y-75309999D01*
X109074819Y-75309999D02*
X109074819Y-75548094D01*
X108170057Y-74595713D02*
X108122438Y-74548094D01*
X108122438Y-74548094D02*
X108074819Y-74452856D01*
X108074819Y-74452856D02*
X108074819Y-74214761D01*
X108074819Y-74214761D02*
X108122438Y-74119523D01*
X108122438Y-74119523D02*
X108170057Y-74071904D01*
X108170057Y-74071904D02*
X108265295Y-74024285D01*
X108265295Y-74024285D02*
X108360533Y-74024285D01*
X108360533Y-74024285D02*
X108503390Y-74071904D01*
X108503390Y-74071904D02*
X109074819Y-74643332D01*
X109074819Y-74643332D02*
X109074819Y-74024285D01*
X108754819Y-71261904D02*
X107754819Y-71261904D01*
X108754819Y-70690476D02*
X108183390Y-71119047D01*
X107754819Y-70690476D02*
X108326247Y-71261904D01*
X112404761Y-90475057D02*
X112309523Y-90427438D01*
X112309523Y-90427438D02*
X112214285Y-90332200D01*
X112214285Y-90332200D02*
X112071428Y-90189342D01*
X112071428Y-90189342D02*
X111976190Y-90141723D01*
X111976190Y-90141723D02*
X111880952Y-90141723D01*
X111928571Y-90379819D02*
X111833333Y-90332200D01*
X111833333Y-90332200D02*
X111738095Y-90236961D01*
X111738095Y-90236961D02*
X111690476Y-90046485D01*
X111690476Y-90046485D02*
X111690476Y-89713152D01*
X111690476Y-89713152D02*
X111738095Y-89522676D01*
X111738095Y-89522676D02*
X111833333Y-89427438D01*
X111833333Y-89427438D02*
X111928571Y-89379819D01*
X111928571Y-89379819D02*
X112119047Y-89379819D01*
X112119047Y-89379819D02*
X112214285Y-89427438D01*
X112214285Y-89427438D02*
X112309523Y-89522676D01*
X112309523Y-89522676D02*
X112357142Y-89713152D01*
X112357142Y-89713152D02*
X112357142Y-90046485D01*
X112357142Y-90046485D02*
X112309523Y-90236961D01*
X112309523Y-90236961D02*
X112214285Y-90332200D01*
X112214285Y-90332200D02*
X112119047Y-90379819D01*
X112119047Y-90379819D02*
X111928571Y-90379819D01*
X112738095Y-89475057D02*
X112785714Y-89427438D01*
X112785714Y-89427438D02*
X112880952Y-89379819D01*
X112880952Y-89379819D02*
X113119047Y-89379819D01*
X113119047Y-89379819D02*
X113214285Y-89427438D01*
X113214285Y-89427438D02*
X113261904Y-89475057D01*
X113261904Y-89475057D02*
X113309523Y-89570295D01*
X113309523Y-89570295D02*
X113309523Y-89665533D01*
X113309523Y-89665533D02*
X113261904Y-89808390D01*
X113261904Y-89808390D02*
X112690476Y-90379819D01*
X112690476Y-90379819D02*
X113309523Y-90379819D01*
X116859580Y-66416666D02*
X116907200Y-66464285D01*
X116907200Y-66464285D02*
X116954819Y-66607142D01*
X116954819Y-66607142D02*
X116954819Y-66702380D01*
X116954819Y-66702380D02*
X116907200Y-66845237D01*
X116907200Y-66845237D02*
X116811961Y-66940475D01*
X116811961Y-66940475D02*
X116716723Y-66988094D01*
X116716723Y-66988094D02*
X116526247Y-67035713D01*
X116526247Y-67035713D02*
X116383390Y-67035713D01*
X116383390Y-67035713D02*
X116192914Y-66988094D01*
X116192914Y-66988094D02*
X116097676Y-66940475D01*
X116097676Y-66940475D02*
X116002438Y-66845237D01*
X116002438Y-66845237D02*
X115954819Y-66702380D01*
X115954819Y-66702380D02*
X115954819Y-66607142D01*
X115954819Y-66607142D02*
X116002438Y-66464285D01*
X116002438Y-66464285D02*
X116050057Y-66416666D01*
X116050057Y-66035713D02*
X116002438Y-65988094D01*
X116002438Y-65988094D02*
X115954819Y-65892856D01*
X115954819Y-65892856D02*
X115954819Y-65654761D01*
X115954819Y-65654761D02*
X116002438Y-65559523D01*
X116002438Y-65559523D02*
X116050057Y-65511904D01*
X116050057Y-65511904D02*
X116145295Y-65464285D01*
X116145295Y-65464285D02*
X116240533Y-65464285D01*
X116240533Y-65464285D02*
X116383390Y-65511904D01*
X116383390Y-65511904D02*
X116954819Y-66083332D01*
X116954819Y-66083332D02*
X116954819Y-65464285D01*
X101324819Y-48856666D02*
X100848628Y-49189999D01*
X101324819Y-49428094D02*
X100324819Y-49428094D01*
X100324819Y-49428094D02*
X100324819Y-49047142D01*
X100324819Y-49047142D02*
X100372438Y-48951904D01*
X100372438Y-48951904D02*
X100420057Y-48904285D01*
X100420057Y-48904285D02*
X100515295Y-48856666D01*
X100515295Y-48856666D02*
X100658152Y-48856666D01*
X100658152Y-48856666D02*
X100753390Y-48904285D01*
X100753390Y-48904285D02*
X100801009Y-48951904D01*
X100801009Y-48951904D02*
X100848628Y-49047142D01*
X100848628Y-49047142D02*
X100848628Y-49428094D01*
X101324819Y-47904285D02*
X101324819Y-48475713D01*
X101324819Y-48189999D02*
X100324819Y-48189999D01*
X100324819Y-48189999D02*
X100467676Y-48285237D01*
X100467676Y-48285237D02*
X100562914Y-48380475D01*
X100562914Y-48380475D02*
X100610533Y-48475713D01*
X161181905Y-79984819D02*
X161181905Y-78984819D01*
X161181905Y-78984819D02*
X161420000Y-78984819D01*
X161420000Y-78984819D02*
X161562857Y-79032438D01*
X161562857Y-79032438D02*
X161658095Y-79127676D01*
X161658095Y-79127676D02*
X161705714Y-79222914D01*
X161705714Y-79222914D02*
X161753333Y-79413390D01*
X161753333Y-79413390D02*
X161753333Y-79556247D01*
X161753333Y-79556247D02*
X161705714Y-79746723D01*
X161705714Y-79746723D02*
X161658095Y-79841961D01*
X161658095Y-79841961D02*
X161562857Y-79937200D01*
X161562857Y-79937200D02*
X161420000Y-79984819D01*
X161420000Y-79984819D02*
X161181905Y-79984819D01*
X162086667Y-78984819D02*
X162753333Y-78984819D01*
X162753333Y-78984819D02*
X162324762Y-79984819D01*
X156578095Y-80354819D02*
X156578095Y-79354819D01*
X157149523Y-80354819D02*
X156720952Y-79783390D01*
X157149523Y-79354819D02*
X156578095Y-79926247D01*
X85583333Y-50459580D02*
X85535714Y-50507200D01*
X85535714Y-50507200D02*
X85392857Y-50554819D01*
X85392857Y-50554819D02*
X85297619Y-50554819D01*
X85297619Y-50554819D02*
X85154762Y-50507200D01*
X85154762Y-50507200D02*
X85059524Y-50411961D01*
X85059524Y-50411961D02*
X85011905Y-50316723D01*
X85011905Y-50316723D02*
X84964286Y-50126247D01*
X84964286Y-50126247D02*
X84964286Y-49983390D01*
X84964286Y-49983390D02*
X85011905Y-49792914D01*
X85011905Y-49792914D02*
X85059524Y-49697676D01*
X85059524Y-49697676D02*
X85154762Y-49602438D01*
X85154762Y-49602438D02*
X85297619Y-49554819D01*
X85297619Y-49554819D02*
X85392857Y-49554819D01*
X85392857Y-49554819D02*
X85535714Y-49602438D01*
X85535714Y-49602438D02*
X85583333Y-49650057D01*
X86535714Y-50554819D02*
X85964286Y-50554819D01*
X86250000Y-50554819D02*
X86250000Y-49554819D01*
X86250000Y-49554819D02*
X86154762Y-49697676D01*
X86154762Y-49697676D02*
X86059524Y-49792914D01*
X86059524Y-49792914D02*
X85964286Y-49840533D01*
X182666666Y-63644819D02*
X182666666Y-64359104D01*
X182666666Y-64359104D02*
X182619047Y-64501961D01*
X182619047Y-64501961D02*
X182523809Y-64597200D01*
X182523809Y-64597200D02*
X182380952Y-64644819D01*
X182380952Y-64644819D02*
X182285714Y-64644819D01*
X183666666Y-64644819D02*
X183095238Y-64644819D01*
X183380952Y-64644819D02*
X183380952Y-63644819D01*
X183380952Y-63644819D02*
X183285714Y-63787676D01*
X183285714Y-63787676D02*
X183190476Y-63882914D01*
X183190476Y-63882914D02*
X183095238Y-63930533D01*
X95084819Y-77666666D02*
X94608628Y-77999999D01*
X95084819Y-78238094D02*
X94084819Y-78238094D01*
X94084819Y-78238094D02*
X94084819Y-77857142D01*
X94084819Y-77857142D02*
X94132438Y-77761904D01*
X94132438Y-77761904D02*
X94180057Y-77714285D01*
X94180057Y-77714285D02*
X94275295Y-77666666D01*
X94275295Y-77666666D02*
X94418152Y-77666666D01*
X94418152Y-77666666D02*
X94513390Y-77714285D01*
X94513390Y-77714285D02*
X94561009Y-77761904D01*
X94561009Y-77761904D02*
X94608628Y-77857142D01*
X94608628Y-77857142D02*
X94608628Y-78238094D01*
X94084819Y-77333332D02*
X94084819Y-76714285D01*
X94084819Y-76714285D02*
X94465771Y-77047618D01*
X94465771Y-77047618D02*
X94465771Y-76904761D01*
X94465771Y-76904761D02*
X94513390Y-76809523D01*
X94513390Y-76809523D02*
X94561009Y-76761904D01*
X94561009Y-76761904D02*
X94656247Y-76714285D01*
X94656247Y-76714285D02*
X94894342Y-76714285D01*
X94894342Y-76714285D02*
X94989580Y-76761904D01*
X94989580Y-76761904D02*
X95037200Y-76809523D01*
X95037200Y-76809523D02*
X95084819Y-76904761D01*
X95084819Y-76904761D02*
X95084819Y-77190475D01*
X95084819Y-77190475D02*
X95037200Y-77285713D01*
X95037200Y-77285713D02*
X94989580Y-77333332D01*
X160023333Y-46084819D02*
X159690000Y-45608628D01*
X159451905Y-46084819D02*
X159451905Y-45084819D01*
X159451905Y-45084819D02*
X159832857Y-45084819D01*
X159832857Y-45084819D02*
X159928095Y-45132438D01*
X159928095Y-45132438D02*
X159975714Y-45180057D01*
X159975714Y-45180057D02*
X160023333Y-45275295D01*
X160023333Y-45275295D02*
X160023333Y-45418152D01*
X160023333Y-45418152D02*
X159975714Y-45513390D01*
X159975714Y-45513390D02*
X159928095Y-45561009D01*
X159928095Y-45561009D02*
X159832857Y-45608628D01*
X159832857Y-45608628D02*
X159451905Y-45608628D01*
X160928095Y-45084819D02*
X160451905Y-45084819D01*
X160451905Y-45084819D02*
X160404286Y-45561009D01*
X160404286Y-45561009D02*
X160451905Y-45513390D01*
X160451905Y-45513390D02*
X160547143Y-45465771D01*
X160547143Y-45465771D02*
X160785238Y-45465771D01*
X160785238Y-45465771D02*
X160880476Y-45513390D01*
X160880476Y-45513390D02*
X160928095Y-45561009D01*
X160928095Y-45561009D02*
X160975714Y-45656247D01*
X160975714Y-45656247D02*
X160975714Y-45894342D01*
X160975714Y-45894342D02*
X160928095Y-45989580D01*
X160928095Y-45989580D02*
X160880476Y-46037200D01*
X160880476Y-46037200D02*
X160785238Y-46084819D01*
X160785238Y-46084819D02*
X160547143Y-46084819D01*
X160547143Y-46084819D02*
X160451905Y-46037200D01*
X160451905Y-46037200D02*
X160404286Y-45989580D01*
X121083333Y-49324819D02*
X120750000Y-48848628D01*
X120511905Y-49324819D02*
X120511905Y-48324819D01*
X120511905Y-48324819D02*
X120892857Y-48324819D01*
X120892857Y-48324819D02*
X120988095Y-48372438D01*
X120988095Y-48372438D02*
X121035714Y-48420057D01*
X121035714Y-48420057D02*
X121083333Y-48515295D01*
X121083333Y-48515295D02*
X121083333Y-48658152D01*
X121083333Y-48658152D02*
X121035714Y-48753390D01*
X121035714Y-48753390D02*
X120988095Y-48801009D01*
X120988095Y-48801009D02*
X120892857Y-48848628D01*
X120892857Y-48848628D02*
X120511905Y-48848628D01*
X121940476Y-48324819D02*
X121750000Y-48324819D01*
X121750000Y-48324819D02*
X121654762Y-48372438D01*
X121654762Y-48372438D02*
X121607143Y-48420057D01*
X121607143Y-48420057D02*
X121511905Y-48562914D01*
X121511905Y-48562914D02*
X121464286Y-48753390D01*
X121464286Y-48753390D02*
X121464286Y-49134342D01*
X121464286Y-49134342D02*
X121511905Y-49229580D01*
X121511905Y-49229580D02*
X121559524Y-49277200D01*
X121559524Y-49277200D02*
X121654762Y-49324819D01*
X121654762Y-49324819D02*
X121845238Y-49324819D01*
X121845238Y-49324819D02*
X121940476Y-49277200D01*
X121940476Y-49277200D02*
X121988095Y-49229580D01*
X121988095Y-49229580D02*
X122035714Y-49134342D01*
X122035714Y-49134342D02*
X122035714Y-48896247D01*
X122035714Y-48896247D02*
X121988095Y-48801009D01*
X121988095Y-48801009D02*
X121940476Y-48753390D01*
X121940476Y-48753390D02*
X121845238Y-48705771D01*
X121845238Y-48705771D02*
X121654762Y-48705771D01*
X121654762Y-48705771D02*
X121559524Y-48753390D01*
X121559524Y-48753390D02*
X121511905Y-48801009D01*
X121511905Y-48801009D02*
X121464286Y-48896247D01*
D14*
%TO.C,D5*%
X127760000Y-93000000D02*
X128780000Y-93000000D01*
X133200000Y-94470000D02*
X133200000Y-91530000D01*
X133320000Y-94470000D02*
X133320000Y-91530000D01*
X133440000Y-94470000D02*
X133440000Y-91530000D01*
X135240000Y-93000000D02*
X134220000Y-93000000D01*
X134220000Y-94470000D02*
X128780000Y-94470000D01*
X128780000Y-91530000D01*
X134220000Y-91530000D01*
X134220000Y-94470000D01*
%TO.C,C4*%
X135249759Y-47161000D02*
X135879759Y-47161000D01*
X135564759Y-46846000D02*
X135564759Y-47476000D01*
X138750000Y-45770000D02*
X138750000Y-52230000D01*
X138790000Y-45770000D02*
X138790000Y-52230000D01*
X138830000Y-45771000D02*
X138830000Y-52229000D01*
X138870000Y-45772000D02*
X138870000Y-52228000D01*
X138910000Y-45774000D02*
X138910000Y-52226000D01*
X138950000Y-45776000D02*
X138950000Y-52224000D01*
X138990000Y-45779000D02*
X138990000Y-47960000D01*
X138990000Y-50040000D02*
X138990000Y-52221000D01*
X139030000Y-45782000D02*
X139030000Y-47960000D01*
X139030000Y-50040000D02*
X139030000Y-52218000D01*
X139070000Y-45786000D02*
X139070000Y-47960000D01*
X139070000Y-50040000D02*
X139070000Y-52214000D01*
X139110000Y-45790000D02*
X139110000Y-47960000D01*
X139110000Y-50040000D02*
X139110000Y-52210000D01*
X139150000Y-45795000D02*
X139150000Y-47960000D01*
X139150000Y-50040000D02*
X139150000Y-52205000D01*
X139190000Y-45800000D02*
X139190000Y-47960000D01*
X139190000Y-50040000D02*
X139190000Y-52200000D01*
X139230000Y-45805000D02*
X139230000Y-47960000D01*
X139230000Y-50040000D02*
X139230000Y-52195000D01*
X139270000Y-45812000D02*
X139270000Y-47960000D01*
X139270000Y-50040000D02*
X139270000Y-52188000D01*
X139310000Y-45818000D02*
X139310000Y-47960000D01*
X139310000Y-50040000D02*
X139310000Y-52182000D01*
X139350000Y-45826000D02*
X139350000Y-47960000D01*
X139350000Y-50040000D02*
X139350000Y-52174000D01*
X139390000Y-45833000D02*
X139390000Y-47960000D01*
X139390000Y-50040000D02*
X139390000Y-52167000D01*
X139430000Y-45841000D02*
X139430000Y-47960000D01*
X139430000Y-50040000D02*
X139430000Y-52159000D01*
X139470000Y-45850000D02*
X139470000Y-47960000D01*
X139470000Y-50040000D02*
X139470000Y-52150000D01*
X139510000Y-45860000D02*
X139510000Y-47960000D01*
X139510000Y-50040000D02*
X139510000Y-52140000D01*
X139550000Y-45869000D02*
X139550000Y-47960000D01*
X139550000Y-50040000D02*
X139550000Y-52131000D01*
X139590000Y-45880000D02*
X139590000Y-47960000D01*
X139590000Y-50040000D02*
X139590000Y-52120000D01*
X139630000Y-45891000D02*
X139630000Y-47960000D01*
X139630000Y-50040000D02*
X139630000Y-52109000D01*
X139670000Y-45902000D02*
X139670000Y-47960000D01*
X139670000Y-50040000D02*
X139670000Y-52098000D01*
X139710000Y-45914000D02*
X139710000Y-47960000D01*
X139710000Y-50040000D02*
X139710000Y-52086000D01*
X139750000Y-45927000D02*
X139750000Y-47960000D01*
X139750000Y-50040000D02*
X139750000Y-52073000D01*
X139790000Y-45940000D02*
X139790000Y-47960000D01*
X139790000Y-50040000D02*
X139790000Y-52060000D01*
X139830000Y-45953000D02*
X139830000Y-47960000D01*
X139830000Y-50040000D02*
X139830000Y-52047000D01*
X139870000Y-45968000D02*
X139870000Y-47960000D01*
X139870000Y-50040000D02*
X139870000Y-52032000D01*
X139910000Y-45983000D02*
X139910000Y-47960000D01*
X139910000Y-50040000D02*
X139910000Y-52017000D01*
X139950000Y-45998000D02*
X139950000Y-47960000D01*
X139950000Y-50040000D02*
X139950000Y-52002000D01*
X139990000Y-46014000D02*
X139990000Y-47960000D01*
X139990000Y-50040000D02*
X139990000Y-51986000D01*
X140030000Y-46031000D02*
X140030000Y-47960000D01*
X140030000Y-50040000D02*
X140030000Y-51969000D01*
X140070000Y-46048000D02*
X140070000Y-47960000D01*
X140070000Y-50040000D02*
X140070000Y-51952000D01*
X140110000Y-46066000D02*
X140110000Y-47960000D01*
X140110000Y-50040000D02*
X140110000Y-51934000D01*
X140150000Y-46085000D02*
X140150000Y-47960000D01*
X140150000Y-50040000D02*
X140150000Y-51915000D01*
X140190000Y-46104000D02*
X140190000Y-47960000D01*
X140190000Y-50040000D02*
X140190000Y-51896000D01*
X140230000Y-46124000D02*
X140230000Y-47960000D01*
X140230000Y-50040000D02*
X140230000Y-51876000D01*
X140270000Y-46145000D02*
X140270000Y-47960000D01*
X140270000Y-50040000D02*
X140270000Y-51855000D01*
X140310000Y-46166000D02*
X140310000Y-47960000D01*
X140310000Y-50040000D02*
X140310000Y-51834000D01*
X140350000Y-46188000D02*
X140350000Y-47960000D01*
X140350000Y-50040000D02*
X140350000Y-51812000D01*
X140390000Y-46211000D02*
X140390000Y-47960000D01*
X140390000Y-50040000D02*
X140390000Y-51789000D01*
X140430000Y-46235000D02*
X140430000Y-47960000D01*
X140430000Y-50040000D02*
X140430000Y-51765000D01*
X140470000Y-46259000D02*
X140470000Y-47960000D01*
X140470000Y-50040000D02*
X140470000Y-51741000D01*
X140510000Y-46284000D02*
X140510000Y-47960000D01*
X140510000Y-50040000D02*
X140510000Y-51716000D01*
X140550000Y-46310000D02*
X140550000Y-47960000D01*
X140550000Y-50040000D02*
X140550000Y-51690000D01*
X140590000Y-46337000D02*
X140590000Y-47960000D01*
X140590000Y-50040000D02*
X140590000Y-51663000D01*
X140630000Y-46364000D02*
X140630000Y-47960000D01*
X140630000Y-50040000D02*
X140630000Y-51636000D01*
X140670000Y-46393000D02*
X140670000Y-47960000D01*
X140670000Y-50040000D02*
X140670000Y-51607000D01*
X140710000Y-46423000D02*
X140710000Y-47960000D01*
X140710000Y-50040000D02*
X140710000Y-51577000D01*
X140750000Y-46453000D02*
X140750000Y-47960000D01*
X140750000Y-50040000D02*
X140750000Y-51547000D01*
X140790000Y-46484000D02*
X140790000Y-47960000D01*
X140790000Y-50040000D02*
X140790000Y-51516000D01*
X140830000Y-46517000D02*
X140830000Y-47960000D01*
X140830000Y-50040000D02*
X140830000Y-51483000D01*
X140870000Y-46550000D02*
X140870000Y-47960000D01*
X140870000Y-50040000D02*
X140870000Y-51450000D01*
X140910000Y-46585000D02*
X140910000Y-47960000D01*
X140910000Y-50040000D02*
X140910000Y-51415000D01*
X140950000Y-46621000D02*
X140950000Y-47960000D01*
X140950000Y-50040000D02*
X140950000Y-51379000D01*
X140990000Y-46658000D02*
X140990000Y-47960000D01*
X140990000Y-50040000D02*
X140990000Y-51342000D01*
X141030000Y-46696000D02*
X141030000Y-47960000D01*
X141030000Y-50040000D02*
X141030000Y-51304000D01*
X141070000Y-46736000D02*
X141070000Y-51264000D01*
X141110000Y-46777000D02*
X141110000Y-51223000D01*
X141150000Y-46819000D02*
X141150000Y-51181000D01*
X141190000Y-46863000D02*
X141190000Y-51137000D01*
X141230000Y-46909000D02*
X141230000Y-51091000D01*
X141270000Y-46956000D02*
X141270000Y-51044000D01*
X141310000Y-47005000D02*
X141310000Y-50995000D01*
X141350000Y-47057000D02*
X141350000Y-50943000D01*
X141390000Y-47110000D02*
X141390000Y-50890000D01*
X141430000Y-47166000D02*
X141430000Y-50834000D01*
X141470000Y-47225000D02*
X141470000Y-50775000D01*
X141510000Y-47286000D02*
X141510000Y-50714000D01*
X141550000Y-47351000D02*
X141550000Y-50649000D01*
X141590000Y-47419000D02*
X141590000Y-50581000D01*
X141630000Y-47491000D02*
X141630000Y-50509000D01*
X141670000Y-47568000D02*
X141670000Y-50432000D01*
X141710000Y-47650000D02*
X141710000Y-50350000D01*
X141750000Y-47739000D02*
X141750000Y-50261000D01*
X141790000Y-47835000D02*
X141790000Y-50165000D01*
X141830000Y-47942000D02*
X141830000Y-50058000D01*
X141870000Y-48061000D02*
X141870000Y-49939000D01*
X141910000Y-48199000D02*
X141910000Y-49801000D01*
X141950000Y-48367000D02*
X141950000Y-49633000D01*
X141990000Y-48598000D02*
X141990000Y-49402000D01*
X142020000Y-49000000D02*
G75*
G02*
X135480000Y-49000000I-3270000J0D01*
G01*
X135480000Y-49000000D02*
G75*
G02*
X142020000Y-49000000I3270000J0D01*
G01*
%TO.C,F1*%
X80100000Y-88950000D02*
X80100000Y-94050000D01*
X80100000Y-88950000D02*
X91900000Y-88950000D01*
X80100000Y-94050000D02*
X91900000Y-94050000D01*
X91900000Y-88950000D02*
X91900000Y-94050000D01*
%TO.C,D3*%
X159710000Y-63264000D02*
X159710000Y-63420000D01*
X159710000Y-65580000D02*
X159710000Y-65736000D01*
X159710000Y-63264484D02*
G75*
G02*
X162941437Y-63420000I1560000J-1235516D01*
G01*
X160229039Y-63420000D02*
G75*
G02*
X162310961Y-63420000I1040961J-1080000D01*
G01*
X162310961Y-65580000D02*
G75*
G02*
X160229039Y-65580000I-1040961J1080000D01*
G01*
X162941437Y-65580000D02*
G75*
G02*
X159710000Y-65735516I-1671437J1080000D01*
G01*
%TO.C,T1*%
X139855000Y-60130000D02*
X139855000Y-67870000D01*
X139855000Y-67870000D02*
X145155000Y-67870000D01*
X141505000Y-60130000D02*
X139855000Y-60130000D01*
X145155000Y-60130000D02*
X143505000Y-60130000D01*
X145155000Y-67870000D02*
X145155000Y-60130000D01*
X143505000Y-60130000D02*
G75*
G02*
X141505000Y-60130000I-1000000J0D01*
G01*
%TO.C,Q1*%
X94890000Y-57170000D02*
X98360000Y-57170000D01*
X94890000Y-59680000D02*
X95110000Y-59680000D01*
X94890000Y-62880000D02*
X95110000Y-62880000D01*
X94890000Y-65390000D02*
X94890000Y-57170000D01*
X98360000Y-57170000D02*
X98360000Y-65390000D01*
X98360000Y-65390000D02*
X94890000Y-65390000D01*
%TO.C,D6*%
X127500000Y-61760000D02*
X127500000Y-62780000D01*
X127500000Y-69240000D02*
X127500000Y-68220000D01*
X128970000Y-63560000D02*
X126030000Y-63560000D01*
X128970000Y-63680000D02*
X126030000Y-63680000D01*
X128970000Y-63800000D02*
X126030000Y-63800000D01*
X128970000Y-62780000D02*
X126030000Y-62780000D01*
X126030000Y-68220000D01*
X128970000Y-68220000D01*
X128970000Y-62780000D01*
%TO.C,D4*%
X84500000Y-70260000D02*
X84500000Y-71280000D01*
X84500000Y-77740000D02*
X84500000Y-76720000D01*
X85970000Y-72060000D02*
X83030000Y-72060000D01*
X85970000Y-72180000D02*
X83030000Y-72180000D01*
X85970000Y-72300000D02*
X83030000Y-72300000D01*
X85970000Y-71280000D02*
X83030000Y-71280000D01*
X83030000Y-76720000D01*
X85970000Y-76720000D01*
X85970000Y-71280000D01*
%TO.C,C3*%
X109130000Y-46630000D02*
X111870000Y-46630000D01*
X109130000Y-51870000D02*
X109130000Y-46630000D01*
X111870000Y-46630000D02*
X111870000Y-51870000D01*
X111870000Y-51870000D02*
X109130000Y-51870000D01*
%TO.C,C5*%
X146749759Y-91161000D02*
X147379759Y-91161000D01*
X147064759Y-90846000D02*
X147064759Y-91476000D01*
X150250000Y-89770000D02*
X150250000Y-96230000D01*
X150290000Y-89770000D02*
X150290000Y-96230000D01*
X150330000Y-89771000D02*
X150330000Y-96229000D01*
X150370000Y-89772000D02*
X150370000Y-96228000D01*
X150410000Y-89774000D02*
X150410000Y-96226000D01*
X150450000Y-89776000D02*
X150450000Y-96224000D01*
X150490000Y-89779000D02*
X150490000Y-91960000D01*
X150490000Y-94040000D02*
X150490000Y-96221000D01*
X150530000Y-89782000D02*
X150530000Y-91960000D01*
X150530000Y-94040000D02*
X150530000Y-96218000D01*
X150570000Y-89786000D02*
X150570000Y-91960000D01*
X150570000Y-94040000D02*
X150570000Y-96214000D01*
X150610000Y-89790000D02*
X150610000Y-91960000D01*
X150610000Y-94040000D02*
X150610000Y-96210000D01*
X150650000Y-89795000D02*
X150650000Y-91960000D01*
X150650000Y-94040000D02*
X150650000Y-96205000D01*
X150690000Y-89800000D02*
X150690000Y-91960000D01*
X150690000Y-94040000D02*
X150690000Y-96200000D01*
X150730000Y-89805000D02*
X150730000Y-91960000D01*
X150730000Y-94040000D02*
X150730000Y-96195000D01*
X150770000Y-89812000D02*
X150770000Y-91960000D01*
X150770000Y-94040000D02*
X150770000Y-96188000D01*
X150810000Y-89818000D02*
X150810000Y-91960000D01*
X150810000Y-94040000D02*
X150810000Y-96182000D01*
X150850000Y-89826000D02*
X150850000Y-91960000D01*
X150850000Y-94040000D02*
X150850000Y-96174000D01*
X150890000Y-89833000D02*
X150890000Y-91960000D01*
X150890000Y-94040000D02*
X150890000Y-96167000D01*
X150930000Y-89841000D02*
X150930000Y-91960000D01*
X150930000Y-94040000D02*
X150930000Y-96159000D01*
X150970000Y-89850000D02*
X150970000Y-91960000D01*
X150970000Y-94040000D02*
X150970000Y-96150000D01*
X151010000Y-89860000D02*
X151010000Y-91960000D01*
X151010000Y-94040000D02*
X151010000Y-96140000D01*
X151050000Y-89869000D02*
X151050000Y-91960000D01*
X151050000Y-94040000D02*
X151050000Y-96131000D01*
X151090000Y-89880000D02*
X151090000Y-91960000D01*
X151090000Y-94040000D02*
X151090000Y-96120000D01*
X151130000Y-89891000D02*
X151130000Y-91960000D01*
X151130000Y-94040000D02*
X151130000Y-96109000D01*
X151170000Y-89902000D02*
X151170000Y-91960000D01*
X151170000Y-94040000D02*
X151170000Y-96098000D01*
X151210000Y-89914000D02*
X151210000Y-91960000D01*
X151210000Y-94040000D02*
X151210000Y-96086000D01*
X151250000Y-89927000D02*
X151250000Y-91960000D01*
X151250000Y-94040000D02*
X151250000Y-96073000D01*
X151290000Y-89940000D02*
X151290000Y-91960000D01*
X151290000Y-94040000D02*
X151290000Y-96060000D01*
X151330000Y-89953000D02*
X151330000Y-91960000D01*
X151330000Y-94040000D02*
X151330000Y-96047000D01*
X151370000Y-89968000D02*
X151370000Y-91960000D01*
X151370000Y-94040000D02*
X151370000Y-96032000D01*
X151410000Y-89983000D02*
X151410000Y-91960000D01*
X151410000Y-94040000D02*
X151410000Y-96017000D01*
X151450000Y-89998000D02*
X151450000Y-91960000D01*
X151450000Y-94040000D02*
X151450000Y-96002000D01*
X151490000Y-90014000D02*
X151490000Y-91960000D01*
X151490000Y-94040000D02*
X151490000Y-95986000D01*
X151530000Y-90031000D02*
X151530000Y-91960000D01*
X151530000Y-94040000D02*
X151530000Y-95969000D01*
X151570000Y-90048000D02*
X151570000Y-91960000D01*
X151570000Y-94040000D02*
X151570000Y-95952000D01*
X151610000Y-90066000D02*
X151610000Y-91960000D01*
X151610000Y-94040000D02*
X151610000Y-95934000D01*
X151650000Y-90085000D02*
X151650000Y-91960000D01*
X151650000Y-94040000D02*
X151650000Y-95915000D01*
X151690000Y-90104000D02*
X151690000Y-91960000D01*
X151690000Y-94040000D02*
X151690000Y-95896000D01*
X151730000Y-90124000D02*
X151730000Y-91960000D01*
X151730000Y-94040000D02*
X151730000Y-95876000D01*
X151770000Y-90145000D02*
X151770000Y-91960000D01*
X151770000Y-94040000D02*
X151770000Y-95855000D01*
X151810000Y-90166000D02*
X151810000Y-91960000D01*
X151810000Y-94040000D02*
X151810000Y-95834000D01*
X151850000Y-90188000D02*
X151850000Y-91960000D01*
X151850000Y-94040000D02*
X151850000Y-95812000D01*
X151890000Y-90211000D02*
X151890000Y-91960000D01*
X151890000Y-94040000D02*
X151890000Y-95789000D01*
X151930000Y-90235000D02*
X151930000Y-91960000D01*
X151930000Y-94040000D02*
X151930000Y-95765000D01*
X151970000Y-90259000D02*
X151970000Y-91960000D01*
X151970000Y-94040000D02*
X151970000Y-95741000D01*
X152010000Y-90284000D02*
X152010000Y-91960000D01*
X152010000Y-94040000D02*
X152010000Y-95716000D01*
X152050000Y-90310000D02*
X152050000Y-91960000D01*
X152050000Y-94040000D02*
X152050000Y-95690000D01*
X152090000Y-90337000D02*
X152090000Y-91960000D01*
X152090000Y-94040000D02*
X152090000Y-95663000D01*
X152130000Y-90364000D02*
X152130000Y-91960000D01*
X152130000Y-94040000D02*
X152130000Y-95636000D01*
X152170000Y-90393000D02*
X152170000Y-91960000D01*
X152170000Y-94040000D02*
X152170000Y-95607000D01*
X152210000Y-90423000D02*
X152210000Y-91960000D01*
X152210000Y-94040000D02*
X152210000Y-95577000D01*
X152250000Y-90453000D02*
X152250000Y-91960000D01*
X152250000Y-94040000D02*
X152250000Y-95547000D01*
X152290000Y-90484000D02*
X152290000Y-91960000D01*
X152290000Y-94040000D02*
X152290000Y-95516000D01*
X152330000Y-90517000D02*
X152330000Y-91960000D01*
X152330000Y-94040000D02*
X152330000Y-95483000D01*
X152370000Y-90550000D02*
X152370000Y-91960000D01*
X152370000Y-94040000D02*
X152370000Y-95450000D01*
X152410000Y-90585000D02*
X152410000Y-91960000D01*
X152410000Y-94040000D02*
X152410000Y-95415000D01*
X152450000Y-90621000D02*
X152450000Y-91960000D01*
X152450000Y-94040000D02*
X152450000Y-95379000D01*
X152490000Y-90658000D02*
X152490000Y-91960000D01*
X152490000Y-94040000D02*
X152490000Y-95342000D01*
X152530000Y-90696000D02*
X152530000Y-91960000D01*
X152530000Y-94040000D02*
X152530000Y-95304000D01*
X152570000Y-90736000D02*
X152570000Y-95264000D01*
X152610000Y-90777000D02*
X152610000Y-95223000D01*
X152650000Y-90819000D02*
X152650000Y-95181000D01*
X152690000Y-90863000D02*
X152690000Y-95137000D01*
X152730000Y-90909000D02*
X152730000Y-95091000D01*
X152770000Y-90956000D02*
X152770000Y-95044000D01*
X152810000Y-91005000D02*
X152810000Y-94995000D01*
X152850000Y-91057000D02*
X152850000Y-94943000D01*
X152890000Y-91110000D02*
X152890000Y-94890000D01*
X152930000Y-91166000D02*
X152930000Y-94834000D01*
X152970000Y-91225000D02*
X152970000Y-94775000D01*
X153010000Y-91286000D02*
X153010000Y-94714000D01*
X153050000Y-91351000D02*
X153050000Y-94649000D01*
X153090000Y-91419000D02*
X153090000Y-94581000D01*
X153130000Y-91491000D02*
X153130000Y-94509000D01*
X153170000Y-91568000D02*
X153170000Y-94432000D01*
X153210000Y-91650000D02*
X153210000Y-94350000D01*
X153250000Y-91739000D02*
X153250000Y-94261000D01*
X153290000Y-91835000D02*
X153290000Y-94165000D01*
X153330000Y-91942000D02*
X153330000Y-94058000D01*
X153370000Y-92061000D02*
X153370000Y-93939000D01*
X153410000Y-92199000D02*
X153410000Y-93801000D01*
X153450000Y-92367000D02*
X153450000Y-93633000D01*
X153490000Y-92598000D02*
X153490000Y-93402000D01*
X153520000Y-93000000D02*
G75*
G02*
X146980000Y-93000000I-3270000J0D01*
G01*
X146980000Y-93000000D02*
G75*
G02*
X153520000Y-93000000I3270000J0D01*
G01*
%TO.C,R2*%
X95630000Y-88230000D02*
X95630000Y-94770000D01*
X95630000Y-94770000D02*
X95960000Y-94770000D01*
X95960000Y-88230000D02*
X95630000Y-88230000D01*
X98040000Y-88230000D02*
X98370000Y-88230000D01*
X98370000Y-88230000D02*
X98370000Y-94770000D01*
X98370000Y-94770000D02*
X98040000Y-94770000D01*
%TO.C,R4*%
X127420000Y-79130000D02*
X133960000Y-79130000D01*
X127420000Y-79460000D02*
X127420000Y-79130000D01*
X127420000Y-81540000D02*
X127420000Y-81870000D01*
X127420000Y-81870000D02*
X133960000Y-81870000D01*
X133960000Y-79130000D02*
X133960000Y-79460000D01*
X133960000Y-81870000D02*
X133960000Y-81540000D01*
%TO.C,D2*%
X106500000Y-72040000D02*
X106500000Y-72690000D01*
X106500000Y-77580000D02*
X106500000Y-76930000D01*
X107620000Y-73290000D02*
X105380000Y-73290000D01*
X107620000Y-73410000D02*
X105380000Y-73410000D01*
X107620000Y-73530000D02*
X105380000Y-73530000D01*
X107620000Y-72690000D02*
X105380000Y-72690000D01*
X105380000Y-76930000D01*
X107620000Y-76930000D01*
X107620000Y-72690000D01*
%TO.C,Q2*%
X108390000Y-90765000D02*
X116610000Y-90765000D01*
X108390000Y-94235000D02*
X108390000Y-90765000D01*
X110900000Y-90765000D02*
X110900000Y-90985000D01*
X114100000Y-90765000D02*
X114100000Y-90985000D01*
X116610000Y-90765000D02*
X116610000Y-94235000D01*
X116610000Y-94235000D02*
X108390000Y-94235000D01*
%TO.C,C2*%
X112630000Y-63630000D02*
X115370000Y-63630000D01*
X112630000Y-68870000D02*
X112630000Y-63630000D01*
X115370000Y-63630000D02*
X115370000Y-68870000D01*
X115370000Y-68870000D02*
X112630000Y-68870000D01*
%TO.C,R1*%
X97130000Y-45420000D02*
X97130000Y-51960000D01*
X97130000Y-51960000D02*
X97460000Y-51960000D01*
X97460000Y-45420000D02*
X97130000Y-45420000D01*
X99540000Y-45420000D02*
X99870000Y-45420000D01*
X99870000Y-45420000D02*
X99870000Y-51960000D01*
X99870000Y-51960000D02*
X99540000Y-51960000D01*
%TO.C,D7*%
X158180000Y-82000000D02*
X159200000Y-82000000D01*
X159980000Y-80530000D02*
X159980000Y-83470000D01*
X160100000Y-80530000D02*
X160100000Y-83470000D01*
X160220000Y-80530000D02*
X160220000Y-83470000D01*
X165660000Y-82000000D02*
X164640000Y-82000000D01*
X159200000Y-80530000D02*
X164640000Y-80530000D01*
X164640000Y-83470000D01*
X159200000Y-83470000D01*
X159200000Y-80530000D01*
%TO.C,C1*%
X82249759Y-52661000D02*
X82879759Y-52661000D01*
X82564759Y-52346000D02*
X82564759Y-52976000D01*
X85750000Y-51270000D02*
X85750000Y-57730000D01*
X85790000Y-51270000D02*
X85790000Y-57730000D01*
X85830000Y-51271000D02*
X85830000Y-57729000D01*
X85870000Y-51272000D02*
X85870000Y-57728000D01*
X85910000Y-51274000D02*
X85910000Y-57726000D01*
X85950000Y-51276000D02*
X85950000Y-57724000D01*
X85990000Y-51279000D02*
X85990000Y-53460000D01*
X85990000Y-55540000D02*
X85990000Y-57721000D01*
X86030000Y-51282000D02*
X86030000Y-53460000D01*
X86030000Y-55540000D02*
X86030000Y-57718000D01*
X86070000Y-51286000D02*
X86070000Y-53460000D01*
X86070000Y-55540000D02*
X86070000Y-57714000D01*
X86110000Y-51290000D02*
X86110000Y-53460000D01*
X86110000Y-55540000D02*
X86110000Y-57710000D01*
X86150000Y-51295000D02*
X86150000Y-53460000D01*
X86150000Y-55540000D02*
X86150000Y-57705000D01*
X86190000Y-51300000D02*
X86190000Y-53460000D01*
X86190000Y-55540000D02*
X86190000Y-57700000D01*
X86230000Y-51305000D02*
X86230000Y-53460000D01*
X86230000Y-55540000D02*
X86230000Y-57695000D01*
X86270000Y-51312000D02*
X86270000Y-53460000D01*
X86270000Y-55540000D02*
X86270000Y-57688000D01*
X86310000Y-51318000D02*
X86310000Y-53460000D01*
X86310000Y-55540000D02*
X86310000Y-57682000D01*
X86350000Y-51326000D02*
X86350000Y-53460000D01*
X86350000Y-55540000D02*
X86350000Y-57674000D01*
X86390000Y-51333000D02*
X86390000Y-53460000D01*
X86390000Y-55540000D02*
X86390000Y-57667000D01*
X86430000Y-51341000D02*
X86430000Y-53460000D01*
X86430000Y-55540000D02*
X86430000Y-57659000D01*
X86470000Y-51350000D02*
X86470000Y-53460000D01*
X86470000Y-55540000D02*
X86470000Y-57650000D01*
X86510000Y-51360000D02*
X86510000Y-53460000D01*
X86510000Y-55540000D02*
X86510000Y-57640000D01*
X86550000Y-51369000D02*
X86550000Y-53460000D01*
X86550000Y-55540000D02*
X86550000Y-57631000D01*
X86590000Y-51380000D02*
X86590000Y-53460000D01*
X86590000Y-55540000D02*
X86590000Y-57620000D01*
X86630000Y-51391000D02*
X86630000Y-53460000D01*
X86630000Y-55540000D02*
X86630000Y-57609000D01*
X86670000Y-51402000D02*
X86670000Y-53460000D01*
X86670000Y-55540000D02*
X86670000Y-57598000D01*
X86710000Y-51414000D02*
X86710000Y-53460000D01*
X86710000Y-55540000D02*
X86710000Y-57586000D01*
X86750000Y-51427000D02*
X86750000Y-53460000D01*
X86750000Y-55540000D02*
X86750000Y-57573000D01*
X86790000Y-51440000D02*
X86790000Y-53460000D01*
X86790000Y-55540000D02*
X86790000Y-57560000D01*
X86830000Y-51453000D02*
X86830000Y-53460000D01*
X86830000Y-55540000D02*
X86830000Y-57547000D01*
X86870000Y-51468000D02*
X86870000Y-53460000D01*
X86870000Y-55540000D02*
X86870000Y-57532000D01*
X86910000Y-51483000D02*
X86910000Y-53460000D01*
X86910000Y-55540000D02*
X86910000Y-57517000D01*
X86950000Y-51498000D02*
X86950000Y-53460000D01*
X86950000Y-55540000D02*
X86950000Y-57502000D01*
X86990000Y-51514000D02*
X86990000Y-53460000D01*
X86990000Y-55540000D02*
X86990000Y-57486000D01*
X87030000Y-51531000D02*
X87030000Y-53460000D01*
X87030000Y-55540000D02*
X87030000Y-57469000D01*
X87070000Y-51548000D02*
X87070000Y-53460000D01*
X87070000Y-55540000D02*
X87070000Y-57452000D01*
X87110000Y-51566000D02*
X87110000Y-53460000D01*
X87110000Y-55540000D02*
X87110000Y-57434000D01*
X87150000Y-51585000D02*
X87150000Y-53460000D01*
X87150000Y-55540000D02*
X87150000Y-57415000D01*
X87190000Y-51604000D02*
X87190000Y-53460000D01*
X87190000Y-55540000D02*
X87190000Y-57396000D01*
X87230000Y-51624000D02*
X87230000Y-53460000D01*
X87230000Y-55540000D02*
X87230000Y-57376000D01*
X87270000Y-51645000D02*
X87270000Y-53460000D01*
X87270000Y-55540000D02*
X87270000Y-57355000D01*
X87310000Y-51666000D02*
X87310000Y-53460000D01*
X87310000Y-55540000D02*
X87310000Y-57334000D01*
X87350000Y-51688000D02*
X87350000Y-53460000D01*
X87350000Y-55540000D02*
X87350000Y-57312000D01*
X87390000Y-51711000D02*
X87390000Y-53460000D01*
X87390000Y-55540000D02*
X87390000Y-57289000D01*
X87430000Y-51735000D02*
X87430000Y-53460000D01*
X87430000Y-55540000D02*
X87430000Y-57265000D01*
X87470000Y-51759000D02*
X87470000Y-53460000D01*
X87470000Y-55540000D02*
X87470000Y-57241000D01*
X87510000Y-51784000D02*
X87510000Y-53460000D01*
X87510000Y-55540000D02*
X87510000Y-57216000D01*
X87550000Y-51810000D02*
X87550000Y-53460000D01*
X87550000Y-55540000D02*
X87550000Y-57190000D01*
X87590000Y-51837000D02*
X87590000Y-53460000D01*
X87590000Y-55540000D02*
X87590000Y-57163000D01*
X87630000Y-51864000D02*
X87630000Y-53460000D01*
X87630000Y-55540000D02*
X87630000Y-57136000D01*
X87670000Y-51893000D02*
X87670000Y-53460000D01*
X87670000Y-55540000D02*
X87670000Y-57107000D01*
X87710000Y-51923000D02*
X87710000Y-53460000D01*
X87710000Y-55540000D02*
X87710000Y-57077000D01*
X87750000Y-51953000D02*
X87750000Y-53460000D01*
X87750000Y-55540000D02*
X87750000Y-57047000D01*
X87790000Y-51984000D02*
X87790000Y-53460000D01*
X87790000Y-55540000D02*
X87790000Y-57016000D01*
X87830000Y-52017000D02*
X87830000Y-53460000D01*
X87830000Y-55540000D02*
X87830000Y-56983000D01*
X87870000Y-52050000D02*
X87870000Y-53460000D01*
X87870000Y-55540000D02*
X87870000Y-56950000D01*
X87910000Y-52085000D02*
X87910000Y-53460000D01*
X87910000Y-55540000D02*
X87910000Y-56915000D01*
X87950000Y-52121000D02*
X87950000Y-53460000D01*
X87950000Y-55540000D02*
X87950000Y-56879000D01*
X87990000Y-52158000D02*
X87990000Y-53460000D01*
X87990000Y-55540000D02*
X87990000Y-56842000D01*
X88030000Y-52196000D02*
X88030000Y-53460000D01*
X88030000Y-55540000D02*
X88030000Y-56804000D01*
X88070000Y-52236000D02*
X88070000Y-56764000D01*
X88110000Y-52277000D02*
X88110000Y-56723000D01*
X88150000Y-52319000D02*
X88150000Y-56681000D01*
X88190000Y-52363000D02*
X88190000Y-56637000D01*
X88230000Y-52409000D02*
X88230000Y-56591000D01*
X88270000Y-52456000D02*
X88270000Y-56544000D01*
X88310000Y-52505000D02*
X88310000Y-56495000D01*
X88350000Y-52557000D02*
X88350000Y-56443000D01*
X88390000Y-52610000D02*
X88390000Y-56390000D01*
X88430000Y-52666000D02*
X88430000Y-56334000D01*
X88470000Y-52725000D02*
X88470000Y-56275000D01*
X88510000Y-52786000D02*
X88510000Y-56214000D01*
X88550000Y-52851000D02*
X88550000Y-56149000D01*
X88590000Y-52919000D02*
X88590000Y-56081000D01*
X88630000Y-52991000D02*
X88630000Y-56009000D01*
X88670000Y-53068000D02*
X88670000Y-55932000D01*
X88710000Y-53150000D02*
X88710000Y-55850000D01*
X88750000Y-53239000D02*
X88750000Y-55761000D01*
X88790000Y-53335000D02*
X88790000Y-55665000D01*
X88830000Y-53442000D02*
X88830000Y-55558000D01*
X88870000Y-53561000D02*
X88870000Y-55439000D01*
X88910000Y-53699000D02*
X88910000Y-55301000D01*
X88950000Y-53867000D02*
X88950000Y-55133000D01*
X88990000Y-54098000D02*
X88990000Y-54902000D01*
X89020000Y-54500000D02*
G75*
G02*
X82480000Y-54500000I-3270000J0D01*
G01*
X82480000Y-54500000D02*
G75*
G02*
X89020000Y-54500000I3270000J0D01*
G01*
%TO.C,J1*%
X175690000Y-47900000D02*
X175690000Y-48420000D01*
X175690000Y-48420000D02*
X176340000Y-48420000D01*
X176340000Y-56530000D02*
X176340000Y-48420000D01*
X176340000Y-63380000D02*
X176340000Y-60050000D01*
X187400000Y-63600000D02*
X185600000Y-63600000D01*
X189660000Y-48420000D02*
X189660000Y-56530000D01*
X189660000Y-48420000D02*
X190310000Y-48420000D01*
X189660000Y-63380000D02*
X176340000Y-63380000D01*
X189660000Y-63380000D02*
X189660000Y-60050000D01*
X190310000Y-47900000D02*
X175690000Y-47900000D01*
X190310000Y-48420000D02*
X190310000Y-47900000D01*
%TO.C,R3*%
X95630000Y-74230000D02*
X95960000Y-74230000D01*
X95630000Y-80770000D02*
X95630000Y-74230000D01*
X95960000Y-80770000D02*
X95630000Y-80770000D01*
X98040000Y-80770000D02*
X98370000Y-80770000D01*
X98370000Y-74230000D02*
X98040000Y-74230000D01*
X98370000Y-80770000D02*
X98370000Y-74230000D01*
%TO.C,R5*%
X156920000Y-46630000D02*
X163460000Y-46630000D01*
X156920000Y-46960000D02*
X156920000Y-46630000D01*
X156920000Y-49040000D02*
X156920000Y-49370000D01*
X156920000Y-49370000D02*
X163460000Y-49370000D01*
X163460000Y-46630000D02*
X163460000Y-46960000D01*
X163460000Y-49370000D02*
X163460000Y-49040000D01*
%TO.C,R6*%
X117980000Y-45130000D02*
X117980000Y-45460000D01*
X117980000Y-47870000D02*
X117980000Y-47540000D01*
X124520000Y-45130000D02*
X117980000Y-45130000D01*
X124520000Y-45460000D02*
X124520000Y-45130000D01*
X124520000Y-47540000D02*
X124520000Y-47870000D01*
X124520000Y-47870000D02*
X117980000Y-47870000D01*
%TD*%
M02*
