%TF.GenerationSoftware,KiCad,Pcbnew,9.0.7*%
%TF.CreationDate,2026-04-08T17:22:56+05:30*%
%TF.ProjectId,mobilecharger,6d6f6269-6c65-4636-9861-726765722e6b,rev?*%
%TF.SameCoordinates,Original*%
%TF.FileFunction,Soldermask,Bot*%
%TF.FilePolarity,Negative*%
%FSLAX46Y46*%
G04 Gerber Fmt 4.6, Leading zero omitted, Abs format (unit mm)*
G04 Created by KiCad (PCBNEW 9.0.7) date 2026-04-08 17:22:56*
%MOMM*%
%LPD*%
G01*
G04 APERTURE LIST*
G04 Aperture macros list*
%AMRoundRect*
0 Rectangle with rounded corners*
0 $1 Rounding radius*
0 $2 $3 $4 $5 $6 $7 $8 $9 X,Y pos of 4 corners*
0 Add a 4 corners polygon primitive as box body*
4,1,4,$2,$3,$4,$5,$6,$7,$8,$9,$2,$3,0*
0 Add four circle primitives for the rounded corners*
1,1,$1+$1,$2,$3*
1,1,$1+$1,$4,$5*
1,1,$1+$1,$6,$7*
1,1,$1+$1,$8,$9*
0 Add four rect primitives between the rounded corners*
20,1,$1+$1,$2,$3,$4,$5,0*
20,1,$1+$1,$4,$5,$6,$7,0*
20,1,$1+$1,$6,$7,$8,$9,0*
20,1,$1+$1,$8,$9,$2,$3,0*%
G04 Aperture macros list end*
%ADD10RoundRect,0.249999X0.850001X0.850001X-0.850001X0.850001X-0.850001X-0.850001X0.850001X-0.850001X0*%
%ADD11C,2.200000*%
%ADD12RoundRect,0.250000X-0.550000X-0.550000X0.550000X-0.550000X0.550000X0.550000X-0.550000X0.550000X0*%
%ADD13C,1.600000*%
%ADD14C,1.560000*%
%ADD15R,1.800000X1.800000*%
%ADD16C,1.800000*%
%ADD17R,1.800000X1.710000*%
%ADD18O,1.800000X1.710000*%
%ADD19RoundRect,0.249999X-0.850001X0.850001X-0.850001X-0.850001X0.850001X-0.850001X0.850001X0.850001X0*%
%ADD20RoundRect,0.250000X-0.550000X0.550000X-0.550000X-0.550000X0.550000X-0.550000X0.550000X0.550000X0*%
%ADD21R,1.710000X1.800000*%
%ADD22O,1.710000X1.800000*%
%ADD23RoundRect,0.249999X-0.850001X-0.850001X0.850001X-0.850001X0.850001X0.850001X-0.850001X0.850001X0*%
%ADD24R,1.600000X1.500000*%
%ADD25C,3.000000*%
G04 APERTURE END LIST*
D10*
%TO.C,D5*%
X136580000Y-93000000D03*
D11*
X126420000Y-93000000D03*
%TD*%
D12*
%TO.C,C4*%
X137500000Y-49000000D03*
D13*
X140000000Y-49000000D03*
%TD*%
D14*
%TO.C,F1*%
X83450000Y-90550000D03*
X88550000Y-92450000D03*
%TD*%
D15*
%TO.C,D3*%
X160000000Y-64500000D03*
D16*
X162540000Y-64500000D03*
%TD*%
D12*
%TO.C,T1*%
X138695000Y-61460000D03*
D13*
X138695000Y-64000000D03*
X138695000Y-66540000D03*
X146315000Y-66540000D03*
X146315000Y-64000000D03*
X146315000Y-61460000D03*
%TD*%
D17*
%TO.C,Q1*%
X97000000Y-63560000D03*
D18*
X97000000Y-61280000D03*
X97000000Y-59000000D03*
%TD*%
D19*
%TO.C,D6*%
X127500000Y-60420000D03*
D11*
X127500000Y-70580000D03*
%TD*%
D19*
%TO.C,D4*%
X84500000Y-68920000D03*
D11*
X84500000Y-79080000D03*
%TD*%
D13*
%TO.C,C3*%
X110500000Y-48000000D03*
X110500000Y-50500000D03*
%TD*%
D12*
%TO.C,C5*%
X149000000Y-93000000D03*
D13*
X151500000Y-93000000D03*
%TD*%
%TO.C,R2*%
X97000000Y-87690000D03*
X97000000Y-95310000D03*
%TD*%
%TO.C,R4*%
X126880000Y-80500000D03*
X134500000Y-80500000D03*
%TD*%
D20*
%TO.C,D2*%
X106500000Y-71000000D03*
D13*
X106500000Y-78620000D03*
%TD*%
D21*
%TO.C,Q2*%
X110220000Y-92875000D03*
D22*
X112500000Y-92875000D03*
X114780000Y-92875000D03*
%TD*%
D13*
%TO.C,C2*%
X114000000Y-65000000D03*
X114000000Y-67500000D03*
%TD*%
%TO.C,R1*%
X98500000Y-44880000D03*
X98500000Y-52500000D03*
%TD*%
D23*
%TO.C,D7*%
X156840000Y-82000000D03*
D11*
X167000000Y-82000000D03*
%TD*%
D12*
%TO.C,C1*%
X84500000Y-54500000D03*
D13*
X87000000Y-54500000D03*
%TD*%
D24*
%TO.C,J1*%
X186500000Y-61000000D03*
D13*
X184000000Y-61000000D03*
X182000000Y-61000000D03*
X179500000Y-61000000D03*
D25*
X189570000Y-58290000D03*
X176430000Y-58290000D03*
%TD*%
D13*
%TO.C,R3*%
X97000000Y-81310000D03*
X97000000Y-73690000D03*
%TD*%
%TO.C,R5*%
X156380000Y-48000000D03*
X164000000Y-48000000D03*
%TD*%
%TO.C,R6*%
X125060000Y-46500000D03*
X117440000Y-46500000D03*
%TD*%
M02*
