%TF.GenerationSoftware,KiCad,Pcbnew,9.0.7*%
%TF.CreationDate,2026-04-08T17:22:56+05:30*%
%TF.ProjectId,mobilecharger,6d6f6269-6c65-4636-9861-726765722e6b,rev?*%
%TF.SameCoordinates,Original*%
%TF.FileFunction,Copper,L1,Top*%
%TF.FilePolarity,Positive*%
%FSLAX46Y46*%
G04 Gerber Fmt 4.6, Leading zero omitted, Abs format (unit mm)*
G04 Created by KiCad (PCBNEW 9.0.7) date 2026-04-08 17:22:56*
%MOMM*%
%LPD*%
G01*
G04 APERTURE LIST*
G04 Aperture macros list*
%AMRoundRect*
0 Rectangle with rounded corners*
0 $1 Rounding radius*
0 $2 $3 $4 $5 $6 $7 $8 $9 X,Y pos of 4 corners*
0 Add a 4 corners polygon primitive as box body*
4,1,4,$2,$3,$4,$5,$6,$7,$8,$9,$2,$3,0*
0 Add four circle primitives for the rounded corners*
1,1,$1+$1,$2,$3*
1,1,$1+$1,$4,$5*
1,1,$1+$1,$6,$7*
1,1,$1+$1,$8,$9*
0 Add four rect primitives between the rounded corners*
20,1,$1+$1,$2,$3,$4,$5,0*
20,1,$1+$1,$4,$5,$6,$7,0*
20,1,$1+$1,$6,$7,$8,$9,0*
20,1,$1+$1,$8,$9,$2,$3,0*%
G04 Aperture macros list end*
%TA.AperFunction,ComponentPad*%
%ADD10RoundRect,0.249999X0.850001X0.850001X-0.850001X0.850001X-0.850001X-0.850001X0.850001X-0.850001X0*%
%TD*%
%TA.AperFunction,ComponentPad*%
%ADD11C,2.200000*%
%TD*%
%TA.AperFunction,ComponentPad*%
%ADD12RoundRect,0.250000X-0.550000X-0.550000X0.550000X-0.550000X0.550000X0.550000X-0.550000X0.550000X0*%
%TD*%
%TA.AperFunction,ComponentPad*%
%ADD13C,1.600000*%
%TD*%
%TA.AperFunction,ComponentPad*%
%ADD14C,1.560000*%
%TD*%
%TA.AperFunction,ComponentPad*%
%ADD15R,1.800000X1.800000*%
%TD*%
%TA.AperFunction,ComponentPad*%
%ADD16C,1.800000*%
%TD*%
%TA.AperFunction,ComponentPad*%
%ADD17R,1.800000X1.710000*%
%TD*%
%TA.AperFunction,ComponentPad*%
%ADD18O,1.800000X1.710000*%
%TD*%
%TA.AperFunction,ComponentPad*%
%ADD19RoundRect,0.249999X-0.850001X0.850001X-0.850001X-0.850001X0.850001X-0.850001X0.850001X0.850001X0*%
%TD*%
%TA.AperFunction,ComponentPad*%
%ADD20RoundRect,0.250000X-0.550000X0.550000X-0.550000X-0.550000X0.550000X-0.550000X0.550000X0.550000X0*%
%TD*%
%TA.AperFunction,ComponentPad*%
%ADD21R,1.710000X1.800000*%
%TD*%
%TA.AperFunction,ComponentPad*%
%ADD22O,1.710000X1.800000*%
%TD*%
%TA.AperFunction,ComponentPad*%
%ADD23RoundRect,0.249999X-0.850001X-0.850001X0.850001X-0.850001X0.850001X0.850001X-0.850001X0.850001X0*%
%TD*%
%TA.AperFunction,ComponentPad*%
%ADD24R,1.600000X1.500000*%
%TD*%
%TA.AperFunction,ComponentPad*%
%ADD25C,3.000000*%
%TD*%
%TA.AperFunction,Conductor*%
%ADD26C,0.200000*%
%TD*%
G04 APERTURE END LIST*
D10*
%TO.P,D5,1,K*%
%TO.N,Net-(D5-K)*%
X136580000Y-93000000D03*
D11*
%TO.P,D5,2,A*%
%TO.N,Net-(D5-A)*%
X126420000Y-93000000D03*
%TD*%
D12*
%TO.P,C4,1*%
%TO.N,Net-(J1-VBUS)*%
X137500000Y-49000000D03*
D13*
%TO.P,C4,2*%
%TO.N,Net-(D3-K)*%
X140000000Y-49000000D03*
%TD*%
D14*
%TO.P,F1,1*%
%TO.N,port*%
X83450000Y-90550000D03*
%TO.P,F1,2*%
%TO.N,Net-(D5-A)*%
X88550000Y-92450000D03*
%TD*%
D15*
%TO.P,D3,1,K*%
%TO.N,Net-(D3-K)*%
X160000000Y-64500000D03*
D16*
%TO.P,D3,2,A*%
%TO.N,Net-(D3-A)*%
X162540000Y-64500000D03*
%TD*%
D12*
%TO.P,T1,1,AA*%
%TO.N,Net-(J1-VBUS)*%
X138695000Y-61460000D03*
D13*
%TO.P,T1,2,AB*%
%TO.N,Net-(D7-K)*%
X138695000Y-64000000D03*
%TO.P,T1,3,SA*%
%TO.N,Net-(D4-K)*%
X138695000Y-66540000D03*
%TO.P,T1,4,SB*%
%TO.N,Net-(D6-A)*%
X146315000Y-66540000D03*
%TO.P,T1,5,SC*%
%TO.N,Net-(D5-K)*%
X146315000Y-64000000D03*
%TO.P,T1,6,SD*%
%TO.N,Net-(D2-K)*%
X146315000Y-61460000D03*
%TD*%
D17*
%TO.P,Q1,1,B*%
%TO.N,Net-(Q1-B)*%
X97000000Y-63560000D03*
D18*
%TO.P,Q1,2,C*%
%TO.N,Net-(D6-A)*%
X97000000Y-61280000D03*
%TO.P,Q1,3,E*%
%TO.N,Net-(Q1-E)*%
X97000000Y-59000000D03*
%TD*%
D19*
%TO.P,D6,1,K*%
%TO.N,Net-(D6-K)*%
X127500000Y-60420000D03*
D11*
%TO.P,D6,2,A*%
%TO.N,Net-(D6-A)*%
X127500000Y-70580000D03*
%TD*%
D19*
%TO.P,D4,1,K*%
%TO.N,Net-(D4-K)*%
X84500000Y-68920000D03*
D11*
%TO.P,D4,2,A*%
%TO.N,port*%
X84500000Y-79080000D03*
%TD*%
D13*
%TO.P,C3,1*%
%TO.N,Net-(D6-K)*%
X110500000Y-48000000D03*
%TO.P,C3,2*%
%TO.N,Net-(D4-K)*%
X110500000Y-50500000D03*
%TD*%
D12*
%TO.P,C5,1*%
%TO.N,Net-(D2-K)*%
X149000000Y-93000000D03*
D13*
%TO.P,C5,2*%
%TO.N,Net-(D5-A)*%
X151500000Y-93000000D03*
%TD*%
%TO.P,R2,1*%
%TO.N,Net-(Q1-E)*%
X97000000Y-87690000D03*
%TO.P,R2,2*%
%TO.N,Net-(D5-A)*%
X97000000Y-95310000D03*
%TD*%
%TO.P,R4,1*%
%TO.N,Net-(C2-Pad1)*%
X126880000Y-80500000D03*
%TO.P,R4,2*%
%TO.N,Net-(D5-K)*%
X134500000Y-80500000D03*
%TD*%
D20*
%TO.P,D2,1,K*%
%TO.N,Net-(D2-K)*%
X106500000Y-71000000D03*
D13*
%TO.P,D2,2,A*%
%TO.N,Net-(D2-A)*%
X106500000Y-78620000D03*
%TD*%
D21*
%TO.P,Q2,1,B*%
%TO.N,Net-(D2-A)*%
X110220000Y-92875000D03*
D22*
%TO.P,Q2,2,C*%
%TO.N,Net-(Q1-B)*%
X112500000Y-92875000D03*
%TO.P,Q2,3,E*%
%TO.N,Net-(D5-A)*%
X114780000Y-92875000D03*
%TD*%
D13*
%TO.P,C2,1*%
%TO.N,Net-(C2-Pad1)*%
X114000000Y-65000000D03*
%TO.P,C2,2*%
%TO.N,Net-(Q1-B)*%
X114000000Y-67500000D03*
%TD*%
%TO.P,R1,1*%
%TO.N,Net-(D4-K)*%
X98500000Y-44880000D03*
%TO.P,R1,2*%
%TO.N,Net-(Q1-B)*%
X98500000Y-52500000D03*
%TD*%
D23*
%TO.P,D7,1,K*%
%TO.N,Net-(D7-K)*%
X156840000Y-82000000D03*
D11*
%TO.P,D7,2,A*%
%TO.N,Net-(D3-K)*%
X167000000Y-82000000D03*
%TD*%
D12*
%TO.P,C1,1*%
%TO.N,Net-(D4-K)*%
X84500000Y-54500000D03*
D13*
%TO.P,C1,2*%
%TO.N,Net-(D5-A)*%
X87000000Y-54500000D03*
%TD*%
D24*
%TO.P,J1,1,VBUS*%
%TO.N,Net-(J1-VBUS)*%
X186500000Y-61000000D03*
D13*
%TO.P,J1,2,D-*%
%TO.N,unconnected-(J1-D--Pad2)*%
X184000000Y-61000000D03*
%TO.P,J1,3,D+*%
%TO.N,unconnected-(J1-D+-Pad3)*%
X182000000Y-61000000D03*
%TO.P,J1,4,GND*%
%TO.N,Net-(D3-K)*%
X179500000Y-61000000D03*
D25*
%TO.P,J1,5,Shield*%
%TO.N,unconnected-(J1-Shield-Pad5)*%
X189570000Y-58290000D03*
%TO.N,unconnected-(J1-Shield-Pad5)_1*%
X176430000Y-58290000D03*
%TD*%
D13*
%TO.P,R3,1*%
%TO.N,Net-(D2-A)*%
X97000000Y-81310000D03*
%TO.P,R3,2*%
%TO.N,Net-(Q1-E)*%
X97000000Y-73690000D03*
%TD*%
%TO.P,R5,1*%
%TO.N,Net-(J1-VBUS)*%
X156380000Y-48000000D03*
%TO.P,R5,2*%
%TO.N,Net-(D3-A)*%
X164000000Y-48000000D03*
%TD*%
%TO.P,R6,1*%
%TO.N,Net-(D4-K)*%
X125060000Y-46500000D03*
%TO.P,R6,2*%
%TO.N,Net-(D6-K)*%
X117440000Y-46500000D03*
%TD*%
D26*
%TO.N,Net-(D4-K)*%
X125060000Y-52905000D02*
X125060000Y-46500000D01*
X138695000Y-66540000D02*
X125060000Y-52905000D01*
%TO.N,Net-(Q1-B)*%
X100060000Y-63560000D02*
X97000000Y-63560000D01*
X98500000Y-52500000D02*
X98750000Y-52750000D01*
X102750000Y-52750000D02*
X103000000Y-53000000D01*
X102250000Y-65750000D02*
X100060000Y-63560000D01*
X98750000Y-52750000D02*
X102750000Y-52750000D01*
X103000000Y-53000000D02*
X103000000Y-65750000D01*
X103000000Y-65750000D02*
X102250000Y-65750000D01*
%TO.N,Net-(D2-K)*%
X109250000Y-71000000D02*
X113500000Y-75250000D01*
X146500000Y-93000000D02*
X149000000Y-93000000D01*
X145750000Y-92250000D02*
X146500000Y-93000000D01*
X145500000Y-92250000D02*
X145750000Y-92250000D01*
X106500000Y-71000000D02*
X109250000Y-71000000D01*
X113500000Y-75250000D02*
X145500000Y-75250000D01*
X145500000Y-75250000D02*
X145500000Y-92250000D01*
%TO.N,Net-(D6-A)*%
X146420000Y-70580000D02*
X146500000Y-70500000D01*
X127500000Y-70580000D02*
X146420000Y-70580000D01*
X146315000Y-70315000D02*
X146315000Y-66540000D01*
X146500000Y-70500000D02*
X146315000Y-70315000D01*
%TO.N,Net-(D7-K)*%
X150750000Y-57750000D02*
X135500000Y-57750000D01*
X150750000Y-75910000D02*
X150750000Y-57750000D01*
X156840000Y-82000000D02*
X150750000Y-75910000D01*
X135250000Y-58000000D02*
X135250000Y-60555000D01*
X135500000Y-57750000D02*
X135250000Y-58000000D01*
X135250000Y-60555000D02*
X138695000Y-64000000D01*
%TD*%
M02*
